<?xml version="1.0" standalone="no"?>
<!DOCTYPE svg PUBLIC "-//W3C//DTD SVG 20010904//EN"
 "http://www.w3.org/TR/2001/REC-SVG-20010904/DTD/svg10.dtd">
<svg version="1.0" xmlns="http://www.w3.org/2000/svg"
 width="192px" height="192px" viewBox="0 0 25.000000 25.000000"
 preserveAspectRatio="xMidYMid meet">

<g transform="translate(0.000000,25.000000) scale(0.100000,-0.100000)"
fill="#000000" stroke="none">
<path d="M110 233 c-41 -15 -82 -83 -50 -83 6 0 10 7 10 15 0 9 11 27 25 40
30 31 77 33 105 5 19 -19 20 -19 20 -1 0 25 -67 40 -110 24z"/>
<path d="M188 138 c15 -15 16 -60 1 -75 -9 -9 -7 -11 9 -7 16 5 21 16 24 50 3
41 1 44 -21 44 -20 0 -22 -3 -13 -12z"/>
</g>
</svg>
