<svg width="222" height="96" viewBox="0 0 222 96" fill="none" xmlns="http://www.w3.org/2000/svg">
<path fill-rule="evenodd" clip-rule="evenodd" d="M33.8387 0H98.6325L107.155 18.1398L97.3817 39.6461L86.9995 17.6707H62.2712L88.7589 73.7354L123.097 0H187.89L143.274 95.0886H122.998L114.593 77.1958L124.335 55.6674L132.971 73.7354L159.459 17.6707H134.73L98.7314 95.0886H78.4549L33.8387 0Z" fill="#CC9753"/>
<path fill-rule="evenodd" clip-rule="evenodd" d="M25.6207 27.1228C26.1911 26.4093 26.7619 26.4095 27.547 26.4095C28.3314 26.4095 28.1893 26.3381 29.259 26.4095C30.329 26.4808 31.0426 26.552 31.6849 26.552C32.3265 26.552 32.6833 26.4808 33.0401 26.9801C33.3969 27.4788 33.6111 27.5503 33.6824 28.2636C33.7537 28.9769 33.8958 30.6171 33.8958 31.2585C33.8958 31.9005 33.8958 35.8941 33.8958 36.3222C33.8958 36.7502 33.8958 38.0336 33.8958 38.0336C33.8958 38.0336 34.2528 38.533 34.4668 39.1031C34.6809 39.6738 34.6096 40.8152 35.3232 40.8152C36.0361 40.8152 36.6784 41.3858 36.8925 40.4585C37.1067 39.5311 37.749 36.5362 37.6419 35.0031C37.5348 33.4694 37.2136 33.3623 37.2851 32.2572C37.3564 31.1516 37.3922 30.7241 37.5348 29.7254C37.6769 28.7273 37.6769 28.6553 37.7483 28.0853C37.8196 27.5145 37.7127 26.8374 38.1408 26.6591C38.5691 26.4808 38.6047 26.1597 39.3183 25.9814C40.0314 25.8031 40.531 25.7674 41.3873 25.8031C42.243 25.8387 43.135 25.9101 43.5989 25.9458C44.0622 25.9814 44.3477 25.8743 44.419 26.8368C44.4904 27.7999 44.5617 29.0126 44.4904 29.7967C44.419 30.5814 44.419 31.9362 44.419 32.2928C44.419 32.6495 44.99 33.6477 44.99 34.2896C44.99 34.9317 44.9185 35.3948 45.1327 36.0725C45.3468 36.7502 45.7386 37.3559 45.6673 37.9267C45.5965 38.4974 45.4537 38.9248 46.0597 38.6757C46.6664 38.4261 46.7733 38.3903 47.0945 37.8553C47.4156 37.3203 47.0232 36.6433 47.7724 36.1795C48.5212 35.7158 48.5927 35.8941 48.5927 34.9317C48.5927 33.9688 48.3784 32.1859 48.5927 31.4368C48.8067 30.6885 49.4132 30.4031 49.4132 29.8323C49.4132 29.2617 49.4132 28.4776 49.4132 27.9069C49.4132 27.3361 49.4847 26.6591 49.7695 26.6591C50.0549 26.6591 50.7686 26.8731 51.0898 26.5164C51.4108 26.1597 51.3395 25.6604 52.1245 25.8031C52.9089 25.9458 53.123 25.8387 53.5512 26.1241C53.9793 26.4095 54.6216 26.4095 55.0492 26.4095C55.4773 26.4095 55.6201 26.2312 55.9762 26.4451C56.3332 26.6591 56.8684 26.3737 56.7613 27.1578C56.6544 27.9426 56.4045 29.0833 56.4045 29.5827C56.4045 30.0821 56.3688 30.6527 56.1904 31.0445C56.0125 31.4368 55.513 31.9005 55.2276 32.1859C54.9421 32.4712 54.5853 32.7922 54.9065 33.2911C55.2276 33.7903 55.5131 34.04 55.5131 34.4681C55.5131 34.8954 55.5488 35.0381 55.5131 35.3235C55.4773 35.6087 55.0492 35.7514 54.8708 36.0012C54.6923 36.2508 54.1571 36.2866 54.0858 36.7145C54.0145 37.142 53.729 37.3203 54.0143 37.463C54.2998 37.6057 54.6566 37.8197 54.6566 38.1051C54.6566 38.3903 54.5139 39.8521 54.4426 40.2802C54.3713 40.7081 53.8717 41.1006 54.0858 41.8489C54.2998 42.598 54.4069 43.3465 54.3355 43.7032C54.2642 44.0598 54.2292 44.4878 53.9437 44.5948C53.6582 44.7019 53.337 44.6305 52.9446 44.6305C52.5521 44.6305 51.6963 44.2738 51.7677 44.8446C51.839 45.4146 51.5893 45.5216 52.1595 45.5216C52.7305 45.5216 53.6938 44.8802 53.7653 45.7356C53.8366 46.5916 54.0501 46.77 53.908 47.4828C53.7653 48.1961 53.3014 48.6599 53.2657 49.1949C53.2301 49.7292 53.1943 49.8719 53.0873 50.2286C52.9802 50.5852 52.8375 56.2904 52.8375 57.1821C52.8375 58.0732 53.0159 59.4643 52.8018 60.2127C52.5878 60.9617 52.445 61.8172 52.3736 63.0299C52.3023 64.242 51.9461 66.5598 51.9105 67.1306C51.8742 67.7006 51.7677 68.4853 51.6963 68.8776C51.625 69.2701 51.3038 69.6624 50.3404 69.6268C49.3776 69.5911 48.1288 69.6261 46.9875 69.6624C45.8463 69.698 44.7045 69.8051 44.3833 69.6268C44.0622 69.4484 43.9915 69.6261 43.6346 68.6637C43.2778 67.7006 43.1708 67.4516 43.2778 66.5598C43.3849 65.6681 43.0281 63.814 43.2065 62.7445C43.3849 61.6752 43.5276 60.5694 43.4205 59.8204C43.3134 59.072 42.7069 59.0005 42.7069 58.0732C42.7069 57.1464 42.7426 56.3975 42.5998 56.005C42.4571 55.6127 42.4571 55.114 42.1359 55.0784C41.8154 55.0426 41.2089 54.9713 40.745 55.1853C40.2811 55.3994 40.1027 55.2209 39.8887 56.54C39.6746 57.8593 39.2827 60.7834 39.2827 61.8172C39.2827 62.8516 39.3539 64.1713 39.1399 65.0267C38.9259 65.8821 38.7475 66.3815 38.7475 67.095C38.7475 67.8083 38.9971 68.4853 38.4619 68.842C37.9267 69.1987 37.4628 69.3057 36.5357 69.3057C35.6087 69.3057 35.3588 69.2701 34.11 69.377C32.8617 69.4841 31.7555 69.6624 31.0426 69.377C30.329 69.0918 29.7579 68.9491 29.8651 68.4141C29.9722 67.8795 29.651 66.0604 29.651 64.9554C29.651 63.8503 29.2942 62.5662 29.2942 61.8885C29.2942 61.2115 29.4368 59.607 29.4368 59.607C29.4368 59.607 29.4726 59.3211 29.8651 59.2147C30.2575 59.1076 30.543 58.6797 30.2575 58.537C29.9722 58.3943 29.1871 59.072 29.4368 58.1089C29.6867 57.1464 29.3305 56.3975 29.1878 55.791C29.045 55.1853 28.8308 54.4363 28.8666 54.1153C28.9022 53.7942 28.5454 51.5835 28.474 50.8706C28.4027 50.1573 27.9744 49.0165 27.9744 48.5884C27.9744 48.1605 27.9744 46.556 27.9744 46.556C27.9744 46.556 28.0102 44.8796 28.0815 44.2382C28.153 43.5961 28.2956 42.9903 28.0815 42.7051C27.8675 42.4197 27.1544 41.5993 27.4392 41.4922C27.7247 41.3853 27.8675 41.5993 28.2956 41.0999C28.7238 40.6012 28.831 40.6012 29.045 39.8165C29.259 39.0324 29.3305 38.319 28.9379 38.212C28.5454 38.1051 27.9031 37.784 27.8318 37.998C27.7604 38.212 27.9744 38.854 27.5107 38.7113C27.0474 38.5686 27.0116 38.0693 27.0116 38.0693C27.0116 38.0693 26.7263 34.1827 26.7263 33.184C26.7263 32.1859 26.7263 31.1521 26.5479 30.831C26.3695 30.51 26.084 30.3675 26.084 29.7967C26.084 29.226 25.8699 28.228 25.8699 28.228L25.6207 27.1228ZM53.908 31.0801C53.8366 31.7578 53.7653 32.2928 53.5154 32.4355C53.2657 32.5782 52.3023 32.8278 52.5163 32.2216C52.7305 31.6151 52.7662 31.2235 52.5878 30.9737C52.4094 30.7235 53.6582 30.296 53.908 31.0801ZM49.0922 45.1292C48.6283 45.3075 48.0223 45.5929 48.0223 45.9139C48.0223 46.235 48.3784 46.4847 47.594 46.5204C46.8091 46.556 45.917 46.0923 46.1668 45.7712C46.4165 45.4502 47.0588 45.7 47.2016 45.1655C47.3443 44.6305 49.1279 44.4165 49.0922 45.1292ZM45.0613 41.3139C44.7045 41.6349 43.7417 41.8489 43.6704 41.2783C43.5989 40.7081 43.2778 40.2802 43.8125 40.1731C44.3477 40.0662 44.99 40.0304 45.1327 40.2802C45.2753 40.5298 45.0613 41.3139 45.0613 41.3139ZM45.6321 51.5833C45.6321 52.1185 45.8463 52.7247 45.3468 52.7247C44.8472 52.7247 44.4548 52.582 44.4548 52.0827C44.4548 51.5835 44.7045 51.2273 44.7045 51.2273L45.6321 51.5833ZM37.7483 52.2612C37.2494 52.4751 36.8212 52.8674 36.6784 52.3324C36.5357 51.7974 36.3216 51.2987 36.6784 51.2987C37.0352 51.2987 37.7132 51.4764 37.7132 51.4764L37.7483 52.2612Z" fill="#083063"/>
<path fill-rule="evenodd" clip-rule="evenodd" d="M62.9638 28.5833C63.6061 27.5138 63.8195 27.2286 64.8186 26.5865C65.8173 25.9451 66.3166 26.1591 67.3158 25.7312C68.3144 25.3031 69.1707 25.0891 70.3119 25.0891C71.4538 25.0891 73.2371 25.0891 74.5211 25.0891C75.805 25.0891 77.3031 25.2318 77.8741 25.5885C78.4449 25.9451 80.5139 26.9432 81.2988 27.4426C82.0832 27.9419 82.9396 29.0827 83.2251 29.9381C83.5099 30.7941 82.8683 31.8636 83.2965 32.363C83.724 32.8623 84.295 33.0763 84.1522 34.2885C84.0095 35.5012 83.5812 36.1432 83.5099 37.1413C83.4391 38.1394 83.4391 40.2795 83.5099 41.991C83.5812 43.7025 83.6527 54.1859 83.5099 54.614C83.3678 55.0414 82.797 54.3286 82.8683 56.5395C82.9396 58.7496 82.6542 61.7452 82.6542 62.8859C82.6542 64.0273 82.5115 64.8827 82.226 65.7389C81.9405 66.5949 81.2988 67.4503 80.3712 68.0924C79.444 68.7344 77.7313 69.7325 75.6623 70.0177C73.5934 70.3031 70.74 70.3031 69.242 70.3746C67.7434 70.4458 66.6022 70.5885 65.4609 69.1617C64.3191 67.7357 63.0353 67.379 62.3215 66.8802C61.6079 66.3808 60.538 65.4535 60.1812 64.8115C59.8244 64.17 59.8251 63.3853 60.6095 63.5994C61.3939 63.8134 61.822 64.3127 62.1788 63.1713C62.5357 62.0305 62.607 61.5312 61.9647 60.7471C61.3224 59.9623 60.6095 59.4631 60.538 58.2509C60.4667 57.0382 60.7522 50.7624 60.7522 49.6929C60.7522 48.6229 60.1099 44.8433 60.1099 44.0592C60.1099 43.2744 61.0376 41.0637 60.9663 40.1369C60.895 39.2094 62.0362 36.0718 61.6079 34.5737C61.1798 33.0763 61.0376 31.4362 61.1798 30.9368C61.3224 30.4374 62.9638 28.5833 62.9638 28.5833ZM74.093 28.6546C75.0921 29.3681 75.591 29.6533 75.2349 30.4374C74.8779 31.2222 73.9509 32.2203 74.5211 33.005C75.0921 33.7898 75.591 34.5737 75.591 35.5012C75.591 36.428 75.591 38.2108 75.591 38.7102C75.591 39.2096 76.5901 40.9922 76.5901 40.9922C76.5901 40.9922 76.3046 41.0637 76.3046 42.3471C76.3046 43.6311 75.9478 45.4139 76.0906 46.1987C76.2333 46.9828 76.3761 47.8388 76.3046 48.5515C76.2333 49.265 75.8051 50.6197 75.8051 50.6197C75.8051 50.6197 76.6614 50.6197 76.6614 51.2618C76.6614 51.9037 75.5195 52.9732 75.5195 53.9719C75.5195 54.97 75.591 56.6108 75.591 57.6088C75.591 58.6069 75.0206 61.8878 74.8781 62.3159C74.7353 62.7439 73.3086 63.7419 73.3086 63.7419C73.3086 63.7419 72.0954 63.2426 71.1683 63.314C70.2405 63.3853 68.5997 64.0988 68.5997 62.3872C68.5997 60.6758 68.3144 58.7496 68.3857 56.9668C68.4571 55.184 68.6712 48.5515 69.028 47.4822C69.3841 46.4126 68.8852 44.2019 69.028 42.7751C69.1707 41.3489 69.028 39.9222 69.028 38.7102C69.028 37.498 69.4556 33.7184 69.4556 33.7184C69.4556 33.7184 72.1667 32.5057 72.4522 31.9355C72.7377 31.3649 71.8099 30.3662 72.6663 29.796C73.5226 29.2254 74.093 28.6546 74.093 28.6546ZM75.9478 61.3885C75.8407 60.7108 75.6267 60.6039 76.269 60.1408C76.9113 59.6771 77.161 59.1419 77.6599 59.5344C78.1594 59.9267 78.3378 59.8554 78.7304 60.6395C79.1229 61.4241 78.7304 62.458 78.9445 63.0286C79.158 63.5994 79.23 64.3484 78.6591 64.5267C78.0881 64.7044 76.9469 64.8834 76.9469 64.063C76.9469 63.2426 77.054 61.9593 77.054 61.9593L75.9478 61.3885ZM78.2309 58.9636C77.9454 58.928 77.3394 58.9636 77.4458 58.4642C77.5529 57.9655 77.5529 57.5732 77.9097 57.5732C78.2665 57.5732 78.8732 57.4305 78.9801 57.8942C79.0872 58.358 78.6233 58.928 78.2309 58.9636ZM63.8049 55.7547C64.0424 55.962 64.5462 56.1698 64.7836 56.5555C65.0211 56.9404 65.3177 57.2964 65.3177 57.5338C65.3177 57.7712 65.0211 58.3051 64.8434 57.9195C64.6648 57.5338 63.8343 57.267 63.9532 57.5929C64.0718 57.9195 64.3684 58.2748 63.9981 59.1421C63.8197 59.4987 62.2502 57.965 62.2859 57.5376C62.3215 57.1095 62.607 56.4674 62.7141 56.0758C62.8211 55.6833 62.8567 55.0056 62.8567 55.0056L63.8049 55.7547ZM64.4618 55.0771C64.2121 55.1483 63.3558 55.0771 63.3558 54.5063C63.3558 53.9363 63.3558 53.5082 63.6411 53.223C63.9266 52.9376 63.9623 52.2605 64.3549 52.0822C64.7473 51.9038 65.3177 51.7254 65.3177 52.3311C65.3177 52.9376 64.6761 54.1146 64.4618 55.0771ZM78.3736 43.8802C78.6585 43.9878 78.7304 44.8075 78.338 44.9502C77.9454 45.0929 77.1961 45.2356 77.1603 44.7362C77.1247 44.2369 76.7322 43.2744 77.1603 43.3101C77.5886 43.3459 78.3736 43.8802 78.3736 43.8802ZM78.3022 42.9534C78.3022 42.5967 78.6585 41.777 78.6585 41.777C78.6585 41.777 79.3008 41.5267 79.4077 42.133C79.5148 42.7394 79.7645 43.2744 79.5148 43.4884C79.265 43.7025 78.5514 43.4171 78.3022 42.9534ZM65.047 38.6031C65.3521 39.3879 65.8744 39.7446 66.0486 40.2789C66.2226 40.8139 66.2226 41.1349 65.613 41.563C65.0032 41.991 63.6966 42.8107 64.2828 41.8483C64.4255 40.8853 62.9275 39.9579 62.8562 39.4948C62.7848 39.0311 63.1774 38.6031 63.3914 38.1038C63.6055 37.6051 63.1059 36.3566 63.6055 36.3924C64.105 36.428 64.3192 36.0718 64.8181 36.4636C65.3177 36.8559 65.6387 38.4604 65.047 38.6031ZM79.1937 38.3892C78.8725 38.2821 78.3373 38.1038 78.4801 37.6407C78.6227 37.177 79.0509 36.6776 79.265 37.0699C79.479 37.4624 79.1937 38.3892 79.1937 38.3892ZM81.8692 47.5534C81.7979 48.0521 80.8701 49.3006 80.8701 49.3006C80.8701 49.3006 79.8003 49.8 80.1213 48.8369C80.442 47.8745 80.6204 46.9828 80.8344 46.9472C81.0485 46.9114 81.8692 47.5534 81.8692 47.5534Z" fill="#083063"/>
<path fill-rule="evenodd" clip-rule="evenodd" d="M111.801 66.9213C111.159 67.9908 110.945 68.2762 109.946 68.9183C108.947 69.5597 108.448 69.3456 107.449 69.7737C106.45 70.2016 105.594 70.4157 104.452 70.4157C103.311 70.4157 101.528 70.4157 100.243 70.4157C98.9592 70.4157 97.461 70.273 96.8901 69.9164C96.3193 69.5597 94.2509 68.5616 93.4659 68.0623C92.681 67.5629 91.8245 66.422 91.5396 65.5659C91.2543 64.7106 91.8966 63.6406 91.4683 63.1417C91.0402 62.6425 90.4692 62.4284 90.612 61.2157C90.7547 60.0036 91.1828 59.3616 91.2543 58.3633C91.3256 57.3653 91.3256 55.2253 91.2543 53.5137C91.1828 51.8023 91.1115 41.3188 91.2543 40.8909C91.397 40.4634 91.9672 41.1761 91.8959 38.9653C91.8251 36.755 92.11 33.7595 92.11 32.6181C92.11 31.4773 92.2527 30.622 92.5382 29.7659C92.8236 28.9099 93.4659 28.0545 94.393 27.4125C95.3208 26.7704 97.0329 25.7723 99.1019 25.4869C101.171 25.2015 104.024 25.2015 105.523 25.1303C107.021 25.0588 108.162 24.9163 109.304 26.343C110.446 27.7691 111.73 28.1258 112.443 28.6245C113.156 29.1239 114.226 30.0513 114.583 30.6932C114.94 31.3346 114.94 32.1194 114.155 31.9054C113.37 31.6915 112.942 31.1921 112.585 32.3335C112.229 33.4743 112.158 33.9736 112.799 34.7576C113.442 35.5424 114.155 36.0417 114.226 37.2539C114.297 38.4666 114.013 44.7424 114.013 45.8118C114.013 46.8813 114.654 50.6615 114.654 51.4457C114.654 52.2302 113.727 54.4412 113.799 55.3678C113.87 56.2953 112.728 59.4328 113.156 60.9309C113.584 62.4284 113.727 64.0685 113.584 64.5679C113.442 65.0672 111.801 66.9213 111.801 66.9213ZM100.671 66.8501C99.6728 66.1367 99.1732 65.8513 99.53 65.0672C99.8868 64.2826 100.814 63.2844 100.243 62.4998C99.6728 61.715 99.1732 60.9309 99.1732 60.0036C99.1732 59.0768 99.1732 57.294 99.1732 56.7946C99.1732 56.2953 98.1741 54.5124 98.1741 54.5124C98.1741 54.5124 98.4596 54.4412 98.4596 53.1571C98.4596 51.8736 98.8164 50.0907 98.6736 49.3062C98.5309 48.522 98.3881 47.666 98.4596 46.9525C98.5309 46.2398 98.9592 44.8851 98.9592 44.8851C98.9592 44.8851 98.1028 44.8851 98.1028 44.243C98.1028 43.601 99.2445 42.5315 99.2445 41.5328C99.2445 40.5347 99.1732 38.8939 99.1732 37.8958C99.1732 36.8977 99.744 33.6168 99.8868 33.1889C100.029 32.7608 101.456 31.7627 101.456 31.7627C101.456 31.7627 102.669 32.2621 103.597 32.1908C104.524 32.1194 106.164 31.4061 106.164 33.1175C106.164 34.829 106.45 36.755 106.379 38.5379C106.307 40.3207 106.093 46.9532 105.737 48.0227C105.38 49.092 105.879 51.303 105.737 52.7296C105.594 54.1558 105.737 55.5819 105.737 56.7946C105.737 58.0067 105.309 61.7863 105.309 61.7863C105.309 61.7863 102.597 62.9985 102.313 63.5691C102.027 64.1399 102.954 65.1387 102.099 65.7086C101.242 66.2794 100.671 66.8501 100.671 66.8501ZM98.8164 34.1162C98.9233 34.7934 99.1376 34.9009 98.4952 35.364C97.8536 35.8278 97.6037 36.3628 97.1042 35.9705C96.6046 35.578 96.4262 35.6494 96.0344 34.8647C95.6418 34.0806 96.0338 33.0468 95.8202 32.4761C95.6062 31.9054 95.5349 31.1565 96.1057 30.978C96.6761 30.8003 97.8179 30.6213 97.8179 31.4417C97.8179 32.2621 97.7108 33.5456 97.7108 33.5456L98.8164 34.1162ZM96.5333 36.5411C96.8188 36.5767 97.4253 36.5411 97.3184 37.0398C97.2113 37.5392 97.2113 37.9316 96.8545 37.9316C96.4983 37.9316 95.8917 38.0742 95.7846 37.6106C95.6776 37.1469 96.1414 36.5767 96.5333 36.5411ZM110.959 39.7501C110.722 39.5428 110.218 39.3348 109.981 38.9494C109.743 38.5638 109.447 38.2082 109.447 37.9708C109.447 37.7336 109.743 37.1997 109.921 37.5854C110.099 37.9708 110.93 38.2378 110.811 37.9119C110.692 37.5854 110.396 37.2298 110.767 36.3628C110.945 36.0061 112.514 37.5398 112.479 37.9673C112.443 38.3952 112.158 39.0372 112.051 39.4291C111.944 39.8214 111.908 40.499 111.908 40.499L110.959 39.7501ZM110.303 40.4278C110.553 40.3563 111.408 40.4278 111.408 40.9978C111.408 41.5686 111.408 41.9965 111.123 42.2819C110.838 42.5673 110.802 43.2443 110.41 43.4227C110.018 43.601 109.447 43.7793 109.447 43.1729C109.447 42.5673 110.089 41.3902 110.303 40.4278ZM96.3912 51.624C96.1057 51.5169 96.0344 50.6972 96.4269 50.5545C96.8195 50.4118 97.5687 50.2691 97.6037 50.7684C97.6395 51.2678 98.032 52.2302 97.6037 52.1946C97.1763 52.159 96.3912 51.624 96.3912 51.624ZM96.4625 52.5513C96.4625 52.9079 96.1057 53.7277 96.1057 53.7277C96.1057 53.7277 95.4641 53.9781 95.3565 53.3717C95.2494 52.7652 94.9997 52.2302 95.2494 52.0163C95.4992 51.8023 96.2128 52.0875 96.4625 52.5513ZM109.717 56.9017C109.413 56.1169 108.89 55.7603 108.716 55.2259C108.542 54.6908 108.541 54.3697 109.151 53.9418C109.761 53.5137 111.068 52.694 110.481 53.6564C110.339 54.6195 111.837 55.5468 111.908 56.0099C111.979 56.4736 111.587 56.9017 111.373 57.4011C111.159 57.8998 111.659 59.1481 111.159 59.1125C110.66 59.0768 110.446 59.4328 109.946 59.0412C109.447 58.6487 109.126 57.0444 109.717 56.9017ZM95.5705 57.1157C95.8917 57.2227 96.4269 57.4011 96.2841 57.8641C96.1414 58.3277 95.7133 58.8271 95.4992 58.4348C95.2857 58.0425 95.5705 57.1157 95.5705 57.1157ZM92.8957 47.9513C92.967 47.4525 93.8941 46.2042 93.8941 46.2042C93.8941 46.2042 94.9645 45.7049 94.6434 46.6679C94.3222 47.6304 94.1438 48.522 93.9298 48.5577C93.7157 48.5933 92.8957 47.9513 92.8957 47.9513Z" fill="#083063"/>
<path fill-rule="evenodd" clip-rule="evenodd" d="M132.489 29.7573C132.489 29.7573 133.702 31.5401 133.987 32.1109C134.273 32.6816 135.057 32.8949 134.915 33.8936C134.772 34.8918 134.844 38.9567 134.844 39.8842C134.844 40.811 135.057 42.0949 135.057 43.093C135.057 44.0917 135.128 45.7319 134.986 46.8014C134.843 47.8714 134.558 49.7256 134.772 51.2943C134.986 52.8632 135.414 55.7873 135.485 56.7855C135.556 57.7842 135.485 59.2817 135.057 60.4944C134.629 61.7064 134.13 62.9186 133.131 63.1326C132.132 63.3466 132.061 64.1313 131.347 63.2753C130.634 62.4199 130.063 62.6339 129.635 61.7064C129.207 60.7791 128.993 60.351 129.136 59.4242C129.278 58.4976 128.708 56.9281 128.708 55.5021C128.708 54.0759 129.064 53.0059 128.993 51.7937C128.921 50.5816 128.921 49.1548 128.921 47.5861C128.921 46.0173 128.637 42.237 128.565 41.3103C128.494 40.3835 128.494 38.1726 128.494 37.5307C128.494 36.8886 128.351 35.3198 128.28 34.8204C128.208 34.3217 128.208 32.0395 128.208 31.3974C128.208 30.7555 128.565 29.6146 128.565 29.6146C128.565 29.6146 132.703 28.7586 132.489 29.7573ZM122.786 26.1918C122.786 26.1918 125.569 25.621 125.997 25.407C126.424 25.1931 129.635 25.407 131.062 25.407C132.489 25.407 133.487 25.2643 134.415 25.3358C135.342 25.407 136.984 25.621 138.054 26.1204C139.123 26.6191 139.766 27.0472 140.622 28.0459C141.478 29.044 142.191 29.686 142.334 30.5414C142.477 31.3974 142.834 32.1815 143.048 32.9663C143.261 33.7511 143.404 34.8918 143.404 36.1758C143.404 37.4593 143.261 46.2312 143.261 47.158C143.261 48.0855 143.261 60.4944 143.119 61.1358C142.977 61.7778 142.691 63.9174 142.548 64.9154C142.406 65.9142 142.049 67.3403 141.05 68.1249C140.051 68.909 138.696 69.5511 137.34 69.765C135.985 69.9792 133.916 70.1217 133.131 69.8365C132.346 69.5511 130.99 70.1931 130.99 70.1931L129.421 69.4084L128.137 69.6938C128.137 69.6938 127.281 69.6938 126.425 69.765C125.569 69.8365 124.856 69.4798 124.07 69.4798C123.286 69.4798 123.072 69.2657 121.93 69.3371C120.788 69.4084 120.575 69.8365 120.575 69.0517C120.575 68.2676 120.646 66.4129 120.575 65.4861C120.503 64.5594 120.504 64.1313 120.718 63.0613C120.931 61.9918 121.003 61.2071 121.003 60.3517C121.003 59.4957 121.359 51.0091 121.288 49.8683C121.217 48.7269 121.359 45.6606 121.288 45.09C121.217 44.5192 121.145 43.0932 121.145 42.6651C121.145 42.2376 121.003 36.8886 121.145 35.8191C121.288 34.7491 121.431 33.2517 121.288 32.5389C121.145 31.8255 120.788 27.5465 120.931 27.1191C121.074 26.6912 122.786 26.1918 122.786 26.1918Z" fill="#083063"/>
<path fill-rule="evenodd" clip-rule="evenodd" d="M149.776 27.1567C149.99 26.5865 150.633 25.6591 151.347 25.9445C152.059 26.2299 153.343 26.3011 154.485 26.2299C155.627 26.1584 158.124 25.8732 159.408 26.0157C160.692 26.1584 162.833 26.3726 162.833 26.3726C162.833 26.3726 163.189 26.5151 164.402 26.5151C165.614 26.5151 166.614 26.5151 167.114 26.5151C167.612 26.5151 168.824 26.5865 168.683 27.0852C168.54 27.5846 167.683 29.6528 167.54 30.3662C167.398 31.0795 167.042 32.0776 166.542 32.363C166.043 32.6484 164.617 33.7177 164.617 32.6484C164.617 31.5782 164.402 31.293 163.974 30.9368C163.546 30.5801 162.405 29.9381 161.976 30.2235C161.549 30.5089 161.62 30.5089 161.691 31.293C161.763 32.0776 161.62 32.363 161.049 32.5769C160.478 32.7911 159.979 32.8623 159.265 33.1471C158.552 33.4325 158.052 32.9336 158.052 34.1458C158.052 35.3578 157.767 37.0694 157.767 38.0681C157.767 39.0669 157.909 42.0617 157.981 42.6324C158.052 43.2025 158.052 44.2012 158.48 44.3439C158.909 44.4866 159.764 44.13 159.764 45.128C159.764 46.1268 159.622 47.4102 159.622 47.4102C159.622 47.4102 159.907 48.3375 160.549 47.4102C161.192 46.4834 161.12 45.7701 162.333 45.6274C163.546 45.4847 163.617 45.556 164.33 45.1993C165.045 44.8433 165.758 44.7719 166.327 44.7719C166.899 44.7719 167.184 43.8446 167.114 44.8433C167.042 45.8414 166.756 49.5502 166.827 50.2631C166.899 50.9757 167.255 51.4751 166.327 51.2611C165.401 51.0472 164.473 50.7624 163.902 50.691C163.332 50.6197 162.048 50.1916 162.048 50.1916C162.048 50.1916 161.334 50.477 161.334 49.9064C161.334 49.3356 161.192 48.8369 160.692 48.7656C160.192 48.6942 159.622 48.2663 159.693 49.0502C159.764 49.835 160.192 50.3343 159.55 50.477C158.909 50.6197 157.91 51.0472 157.91 51.0472L157.624 52.8305C157.624 52.8305 156.911 53.4006 157.125 54.4706C157.339 55.5401 156.768 61.1739 156.911 61.8159C157.054 62.458 156.697 63.67 157.268 63.7415C157.838 63.8127 157.411 64.5975 158.694 64.5975C159.978 64.5975 160.192 64.3834 161.049 64.5975C161.905 64.8115 162.405 65.6668 163.046 65.3102C163.689 64.9542 163.689 64.6688 164.259 64.4548C164.83 64.2408 164.402 63.884 165.401 63.884C166.399 63.884 167.114 63.1707 167.114 64.0981C167.114 65.0254 166.827 68.5198 166.827 68.5198C166.827 68.5198 166.899 69.8031 166.327 69.5892C165.758 69.3752 164.687 69.2325 163.689 69.2325C162.689 69.2325 155.698 69.1612 155.128 69.1612C154.557 69.1612 152.059 69.3752 151.631 69.3752C151.204 69.3752 149.135 70.0173 149.135 69.0185C149.135 68.0205 148.921 67.0217 149.206 66.5229C149.492 66.0235 149.991 65.4529 150.062 64.8827C150.133 64.3121 149.562 64.4548 149.562 63.7415C149.562 63.0286 148.778 62.8859 149.562 62.3153C150.347 61.7447 150.633 61.3166 150.633 61.3166C150.633 61.3166 149.776 61.0318 149.776 60.5325C149.776 60.0331 149.705 59.0344 149.705 59.0344C149.705 59.0344 150.276 57.8936 150.062 56.6101C149.848 55.3262 149.776 53.3299 149.776 52.688C149.776 52.0459 149.99 41.7051 149.99 41.7051C149.99 41.7051 150.276 31.3642 150.276 30.7941C150.276 30.2235 149.919 28.084 149.919 28.084L149.776 27.1567ZM154.392 62.0299C154.707 62.6585 155.729 63.2875 155.886 64.2302C156.043 65.1736 156.436 65.881 155.912 65.5243C155.413 65.5243 153.344 66.951 152.702 67.0217C152.059 67.093 151.417 66.4516 152.059 66.0235C152.702 65.5956 152.703 64.6657 153.343 64.5975C153.984 64.5285 154.378 64.5261 154.343 64.1694C154.307 63.8127 153.95 63.6344 153.736 63.3134C153.522 62.993 153.023 62.8503 153.343 62.4936C153.665 62.137 154.235 61.602 154.392 62.0299ZM152.595 63.9554C152.488 64.205 151.952 64.2052 151.917 63.8484C151.881 63.4917 151.774 63.2777 152.059 63.2777C152.345 63.2777 152.951 63.7771 152.595 63.9554ZM152.666 59.4267C152.274 59.8357 152.167 60.4674 151.81 60.2816C151.453 60.0959 150.989 60.1703 151.274 59.7477C151.56 59.3198 152.595 59.0707 152.666 59.4267ZM152.737 56.7172C152.452 56.7172 152.095 56.788 152.167 56.3962C152.238 56.0039 152.202 55.647 152.523 55.8612C152.845 56.0751 153.165 56.5389 152.737 56.7172Z" fill="#083063"/>
<path fill-rule="evenodd" clip-rule="evenodd" d="M195.2 39.5773C195.2 39.5773 193.416 39.3638 192.917 39.3638C192.417 39.3638 190.634 39.3638 190.634 39.3638L188.636 39.4352C188.636 39.4352 188.351 38.0798 188.351 37.5805C188.351 37.0818 188.351 35.5123 188.351 35.5123C188.351 35.5123 187.994 35.0843 187.923 34.5142C187.851 33.9435 187.638 32.4459 187.638 32.4459C187.638 32.4459 186.282 31.8753 185.497 31.804C184.713 31.7326 184.213 31.376 183.713 31.5899C183.214 31.8041 182.644 31.9466 182.572 32.5174C182.501 33.088 181.929 33.5874 181.858 34.0861C181.788 34.5854 181.573 36.4397 181.573 36.8676C181.573 37.2951 181.929 44.9263 181.929 45.7104C181.929 46.4951 181.358 48.2065 181.358 48.2065L181.001 49.4907C181.001 49.4907 181.644 50.0606 181.788 50.7027C181.929 51.3448 182.001 51.6295 181.788 52.2001C181.573 52.7709 180.86 53.555 181.288 53.769C181.716 53.983 182.001 53.8403 182.001 54.5538C182.001 55.2671 182.144 57.834 182.144 58.4047C182.144 58.9755 182.501 59.8308 182.501 60.7581C182.501 61.6849 182.357 62.6124 182.357 63.3257C182.357 64.0384 182.286 65.0371 182.429 65.5365C182.572 66.0352 182.644 66.5346 183.498 66.3206C184.356 66.1066 183.857 65.6785 184.426 65.4652C184.998 65.2513 185.212 64.8232 185.497 65.3938C185.782 65.9639 186.139 67.0334 186.495 66.2493C186.853 65.4652 186.638 65.1798 187.28 65.1798C187.923 65.1798 188.707 65.3225 188.85 64.8232C188.994 64.3238 188.922 63.3257 188.922 63.3257C188.922 63.3257 187.994 63.3257 188.351 62.1843C188.707 61.0435 188.779 60.1162 188.85 59.6169C188.922 59.118 188.922 58.9034 188.922 58.262C188.922 57.6199 188.779 57.0499 188.779 56.6218C188.779 56.1939 188.779 55.6238 188.85 55.1957C188.922 54.7677 188.636 54.3396 188.636 53.8403C188.636 53.3409 187.779 52.9849 188.922 52.9849C190.063 52.9849 190.205 52.6282 190.563 53.1989C190.919 53.769 191.989 53.8403 191.989 53.8403C191.989 53.8403 191.845 52.913 192.488 52.8422C193.131 52.7709 193.629 52.7709 194.272 52.7709C194.914 52.7709 195.342 52.0574 195.413 52.7709C195.485 53.4836 195.557 55.1952 195.627 55.6945C195.698 56.1939 195.77 57.7626 195.77 57.7626C195.77 57.7626 195.413 58.6901 194.985 58.6186C194.557 58.5474 194.201 57.6199 193.701 58.1907C193.201 58.7613 192.56 59.118 192.56 59.118L191.347 59.6169C191.347 59.6169 190.348 60.0455 191.063 60.5442C191.775 61.0435 192.703 61.2575 192.703 61.2575C192.703 61.2575 192.988 60.9008 193.131 60.4015C193.273 59.9021 193.986 59.332 194.201 59.9021C194.414 60.4729 194.629 61.1862 194.629 61.1862C194.629 61.1862 195.129 61.471 195.485 61.9703C195.842 62.4697 196.413 62.541 195.913 63.397C195.413 64.2525 194.985 64.6092 194.985 65.1798C194.985 65.75 194.486 66.5346 194.129 67.2481C193.773 67.9607 193.486 68.6028 192.56 68.6741C191.632 68.7455 190.634 69.0309 189.707 69.1734C188.779 69.3161 188.066 69.6723 186.067 69.6009C184.07 69.5296 183.214 69.6721 181.716 69.3869C180.217 69.1022 180.004 69.1015 179.076 68.8168C178.148 68.5315 177.292 68.5315 176.865 67.818C176.437 67.1054 175.723 66.7487 175.651 65.9639C175.579 65.1798 175.223 64.6092 175.151 63.6817C175.081 62.7551 174.297 61.8989 174.297 61.3995C174.297 60.9008 173.154 59.9735 174.01 60.2588C174.867 60.5442 176.008 61.3995 176.008 61.3995C176.008 61.3995 176.722 60.9008 177.292 60.9723C177.863 61.0435 178.435 60.9723 178.576 60.3302C178.719 59.6881 178.363 59.3321 177.792 59.1894C177.222 59.0467 176.151 58.8328 175.438 58.8328C174.725 58.8328 173.083 58.9034 173.869 58.3334C174.653 57.7626 175.295 57.4779 175.223 57.0499C175.151 56.6218 174.082 56.6218 174.082 55.9085C174.082 55.1957 174.01 55.0531 174.154 54.4823C174.297 53.9117 175.151 53.627 175.151 52.6995C175.151 51.7722 174.795 51.2735 175.51 51.0594C176.222 50.8454 177.363 50.9162 177.507 50.4173C177.648 49.9179 177.863 49.4192 177.292 49.2053C176.722 48.9913 176.507 48.278 175.794 48.8486C175.08 49.4192 174.154 49.5613 174.438 48.9913C174.725 48.4205 174.725 48.278 175.223 47.9211C175.723 47.5645 176.151 47.4939 176.222 47.0658C176.294 46.6377 176.222 46.2812 175.579 46.3524C174.938 46.4237 173.939 46.4951 173.939 46.4951C173.939 46.4951 172.869 46.2097 173.511 45.7104C174.154 45.211 174.51 45.4256 174.51 44.5696C174.51 43.7136 174.154 42.5728 174.154 42.5728C174.154 42.5728 173.726 42.9295 173.511 41.7168C173.297 40.5046 173.226 40.5046 173.297 39.4352C173.369 38.3651 173.582 37.8657 173.154 37.0103C172.726 36.1543 172.513 34.9416 172.656 34.2288C172.798 33.5155 173.083 32.1607 173.226 31.6614C173.369 31.1626 173.512 30.6633 174.51 29.2365C175.51 27.8103 176.294 26.7403 177.079 26.4555C177.863 26.1702 179.86 25.5283 180.645 25.2435C181.43 24.9581 185.354 24.6727 186.067 24.6727C186.782 24.6727 189.563 25.4568 190.348 25.8135C191.133 26.1702 193.273 26.8836 193.773 27.2397C194.272 27.5963 194.772 28.0957 194.914 28.8804C195.057 29.6646 195.485 34.0861 195.77 35.1562C196.055 36.2256 195.2 39.5773 195.2 39.5773ZM193.737 63.076C193.95 63.7895 193.701 64.5378 193.201 64.3951C192.703 64.2525 191.953 63.932 191.668 64.2882C191.382 64.6448 190.634 65.1798 190.42 64.8944C190.205 64.6092 190.312 64.1811 190.42 63.8244C190.527 63.4684 190.527 63.076 190.563 62.5766C190.599 62.0772 190.171 61.4358 190.883 61.3646C191.596 61.2933 191.24 61.471 191.811 61.9347C192.381 62.3983 192.845 62.2914 193.094 62.4697C193.345 62.648 193.737 63.076 193.737 63.076ZM192.168 58.0098C191.813 58.3642 191.297 58.7996 190.812 58.4047C190.599 57.9409 191.632 56.3722 191.881 56.6575C192.132 56.9429 192.168 58.0098 192.168 58.0098ZM194.022 56.5506C193.701 56.5506 193.201 56.7289 193.345 56.1939C193.486 55.6588 193.309 55.2671 193.737 55.3027C194.165 55.3384 194.344 55.695 194.344 55.695L194.022 56.5506ZM192.275 55.5167C191.775 55.6589 191.419 55.7665 191.453 55.3027C191.489 54.839 191.775 54.4111 192.132 54.625C192.488 54.839 192.632 55.3742 192.275 55.5167ZM180.583 62.1487C180.634 62.8264 180.608 63.2901 180.282 63.718C179.956 64.1455 179.506 64.5734 179.305 64.8588C179.105 65.1442 178.705 65.6079 177.614 65.2155C177.328 64.8232 179.076 62.2556 179.076 62.2556C179.076 62.2556 179.361 61.7562 179.753 61.5785C180.147 61.4002 180.681 61.4716 180.583 62.1487ZM179.683 42.4657C179.076 42.4657 178.255 42.5728 178.042 42.9295C177.827 43.2861 177.971 43.1434 177.971 43.8919C177.971 44.6409 178.435 45.069 178.112 45.3544C177.792 45.6391 177.507 44.3556 177.184 44.9263C176.865 45.4964 176.722 45.9243 176.294 45.7817C175.866 45.6391 174.902 45.6396 175.687 44.9263C176.472 44.2129 177.007 43.8206 177.079 43.3569C177.15 42.8938 177.435 41.6097 177.72 41.0039C178.006 40.3977 178.22 39.8627 178.825 40.2193C179.432 40.576 180.217 42.3588 179.683 42.4657ZM179.932 37.8657C179.432 37.6874 178.934 37.1887 178.612 37.723C178.291 38.2582 177.72 39.0071 177.507 38.3651C177.292 37.723 177.114 37.7237 177.614 37.2601C178.112 36.7964 177.899 36.4397 178.47 36.2256C179.04 36.0116 179.54 35.5485 179.86 36.0116C180.181 36.4753 180.396 37.9371 179.932 37.8657ZM178.719 34.1931C177.935 34.0504 177.256 33.9078 177.292 33.3734C177.328 32.8384 177.648 32.1963 178.006 32.2676C178.363 32.339 178.719 32.1249 178.863 32.6957C179.004 33.2657 179.148 34.1575 178.719 34.1931Z" fill="#083063"/>
<path d="M155.833 84.6099V80.9601C155.833 79.5413 155.82 78.5149 155.756 77.4381L155.794 77.4246C156.213 78.3501 156.783 79.3255 157.379 80.2762L160.092 84.6099H161.208V76.0692H160.168V79.6557C160.168 80.973 160.193 82.0122 160.295 83.1525L160.257 83.1654C159.863 82.2909 159.356 81.3912 158.735 80.3906L156.01 76.0692H154.793V84.6099H155.833ZM147.965 83.8492C146.229 83.8492 145.24 82.1894 145.24 80.3906C145.24 78.5401 146.153 76.8298 147.99 76.8298C149.829 76.8298 150.717 78.6034 150.717 80.302C150.717 82.2405 149.728 83.8492 147.978 83.8492H147.965ZM147.927 84.7495C150.094 84.7495 151.882 83.1777 151.882 80.2504C151.882 77.7166 150.374 75.9296 148.029 75.9296C145.747 75.9296 144.073 77.7044 144.073 80.4159C144.073 83.0005 145.645 84.7495 147.915 84.7495H147.927ZM140.06 76.0692V84.6099H141.175V76.0692H140.06ZM133.917 84.6099H135.032V77.007H137.644V76.0692H131.318V77.007H133.917V84.6099ZM128.851 83.4439C128.408 83.6598 127.723 83.7995 127.039 83.7995C124.972 83.7995 123.768 82.4686 123.768 80.3776C123.768 78.1472 125.099 76.8674 127.102 76.8674C127.812 76.8674 128.408 77.0192 128.813 77.2223L129.092 76.3103C128.801 76.17 128.116 75.9424 127.064 75.9424C124.415 75.9424 122.602 77.7418 122.602 80.4159C122.602 83.2165 124.402 84.7367 126.811 84.7367C127.85 84.7367 128.674 84.5343 129.067 84.3314L128.851 83.4439ZM113.417 76.0692V81.0997C113.417 83.7607 114.735 84.7495 116.484 84.7495C118.335 84.7495 119.716 83.6851 119.716 81.0621V76.0692H118.602V81.1378C118.602 83.0134 117.778 83.8492 116.523 83.8492C115.382 83.8492 114.532 83.0386 114.532 81.1378V76.0692H113.417ZM106.234 76.9688C106.424 76.9184 106.792 76.8674 107.324 76.8674C108.49 76.8674 109.289 77.3489 109.289 78.4509C109.289 79.4275 108.542 80.0732 107.362 80.0732H106.234V76.9688ZM105.131 84.6099H106.234V80.9102H107.274C108.275 80.9478 108.744 81.3912 108.997 82.57C109.226 83.634 109.416 84.3566 109.555 84.6099H110.696C110.531 84.2803 110.329 83.4569 110.049 82.2657C109.834 81.3789 109.441 80.7707 108.794 80.5424V80.5044C109.682 80.1999 110.404 79.4528 110.404 78.3372C110.404 77.6657 110.151 77.0827 109.733 76.7155C109.2 76.234 108.427 76.0059 107.248 76.0059C106.5 76.0059 105.689 76.0815 105.131 76.1959V84.6099ZM98.9751 84.6099H100.09V77.007H102.702V76.0692H96.3764V77.007H98.9751V84.6099ZM89.1938 84.1794C89.6498 84.4832 90.5504 84.7367 91.3742 84.7367C93.3896 84.7367 94.3529 83.5835 94.3529 82.2786C94.3529 81.0241 93.6307 80.3395 92.1856 79.7694C91.007 79.3132 90.4871 78.9202 90.4871 78.1348C90.4871 77.5518 90.9306 76.8551 92.0964 76.8551C92.8704 76.8551 93.4406 77.0956 93.7064 77.2604L94.0116 76.3477C93.6431 76.1455 92.997 75.9424 92.1347 75.9424C90.4742 75.9424 89.3717 76.9307 89.3717 78.2615C89.3717 79.4528 90.233 80.1876 91.6276 80.6685C92.7819 81.0997 93.2376 81.5683 93.2376 82.3671C93.2376 83.2287 92.5787 83.8117 91.4505 83.8117C90.6894 83.8117 89.9802 83.5712 89.4855 83.2669L89.1938 84.1794ZM80.8448 84.6099V80.9601C80.8448 79.5413 80.8326 78.5149 80.7691 77.4381L80.8074 77.4246C81.2257 78.3501 81.7961 79.3255 82.3915 80.2762L85.1046 84.6099H86.22V76.0692H85.1808V79.6557C85.1808 80.973 85.2055 82.0122 85.3076 83.1525L85.2695 83.1654C84.8764 82.2909 84.3694 81.3912 83.7481 80.3906L81.0221 76.0692H79.8052V84.6099H80.8448ZM72.9783 83.8492C71.2415 83.8492 70.2522 82.1894 70.2522 80.3906C70.2522 78.5401 71.1658 76.8298 73.0035 76.8298C74.8417 76.8298 75.7289 78.6034 75.7289 80.302C75.7289 82.2405 74.7402 83.8492 72.9905 83.8492H72.9783ZM72.9401 84.7495C75.1076 84.7495 76.8953 83.1777 76.8953 80.2504C76.8953 77.7166 75.3862 75.9296 73.0416 75.9296C70.7599 75.9296 69.0864 77.7044 69.0864 80.4159C69.0864 83.0005 70.6583 84.7495 72.9272 84.7495H72.9401ZM66.7721 83.4439C66.3279 83.6598 65.6437 83.7995 64.9591 83.7995C62.8925 83.7995 61.688 82.4686 61.688 80.3776C61.688 78.1472 63.0193 76.8674 65.0224 76.8674C65.7323 76.8674 66.3279 77.0192 66.7333 77.2223L67.0127 76.3103C66.721 76.17 66.0362 75.9424 64.9842 75.9424C62.3352 75.9424 60.5222 77.7418 60.5222 80.4159C60.5222 83.2165 62.3217 84.7367 64.7307 84.7367C65.7699 84.7367 66.5942 84.5343 66.9874 84.3314L66.7721 83.4439Z" fill="#083063"/>
<path d="M153.92 15.584H151.107V16.4714H152.831V19.018C152.577 19.1447 152.083 19.2463 151.361 19.2463C149.357 19.2463 148.065 17.9664 148.065 15.7999C148.065 13.6579 149.42 12.3659 151.5 12.3659C152.362 12.3659 152.932 12.5178 153.388 12.733L153.668 11.8339C153.3 11.6562 152.514 11.4403 151.525 11.4403C148.66 11.4403 146.899 13.3031 146.899 15.8503C146.899 17.1811 147.354 18.3213 148.09 19.031C148.926 19.8298 149.991 20.1588 151.284 20.1588C152.438 20.1588 153.426 19.8802 153.92 19.6901V15.584ZM138.626 20.0702V16.4205C138.626 15.001 138.612 13.9746 138.55 12.8978L138.587 12.8849C139.006 13.8105 139.576 14.7858 140.172 15.7366L142.885 20.0702H144V11.5295H142.961V15.1154C142.961 16.4333 142.986 17.4725 143.088 18.6128L143.049 18.6257C142.657 17.7511 142.149 16.8515 141.528 15.8503L138.803 11.5295H137.585V20.0702H138.626ZM133.066 11.5295V20.0702H134.181V11.5295H133.066ZM125.882 12.4286C126.073 12.3782 126.44 12.3277 126.972 12.3277C128.139 12.3277 128.938 12.8087 128.938 13.9113C128.938 14.8873 128.19 15.5337 127.011 15.5337H125.882V12.4286ZM124.779 20.0702H125.882V16.37H126.923C127.924 16.4081 128.393 16.8515 128.647 18.0298C128.874 19.0943 129.064 19.8162 129.205 20.0702H130.345C130.18 19.7406 129.977 18.9171 129.699 17.7261C129.483 16.8386 129.09 16.2304 128.443 16.0028V15.964C129.331 15.6603 130.053 14.9125 130.053 13.7975C130.053 13.126 129.799 12.543 129.382 12.1758C128.849 11.6943 128.076 11.4656 126.897 11.4656C126.149 11.4656 125.337 11.5418 124.779 11.6562V20.0702ZM121.476 15.1535H118.168V12.4544H121.679V11.5295H117.052V20.0702H121.869V19.1447H118.168V16.0662H121.476V15.1535ZM113.762 15.1535H110.452V12.4544H113.964V11.5295H109.337V20.0702H114.154V19.1447H110.452V16.0662H113.762V15.1535ZM100.57 20.0702V16.4205C100.57 15.001 100.557 13.9746 100.494 12.8978L100.532 12.8849C100.951 13.8105 101.521 14.7858 102.116 15.7366L104.829 20.0702H105.945V11.5295H104.906V15.1154C104.906 16.4333 104.931 17.4725 105.032 18.6128L104.994 18.6257C104.601 17.7511 104.094 16.8515 103.473 15.8503L100.747 11.5295H99.5306V20.0702H100.57ZM95.0094 11.5295V20.0702H96.1254V11.5295H95.0094ZM91.8707 15.584H89.0566V16.4714H90.7812V19.018C90.5276 19.1447 90.0331 19.2463 89.3102 19.2463C87.3076 19.2463 86.0145 17.9664 86.0145 15.7999C86.0145 13.6579 87.3711 12.3659 89.4499 12.3659C90.3118 12.3659 90.882 12.5178 91.3386 12.733L91.6172 11.8339C91.2498 11.6562 90.4643 11.4403 89.4756 11.4403C86.6106 11.4403 84.8481 13.3031 84.8481 15.8503C84.8481 17.1811 85.3045 18.3213 86.0398 19.031C86.8764 19.8298 87.9413 20.1588 89.2345 20.1588C90.388 20.1588 91.3766 19.8802 91.8707 19.6901V15.584ZM76.5753 20.0702V16.4205C76.5753 15.001 76.5631 13.9746 76.4998 12.8978L76.5379 12.8849C76.9555 13.8105 77.5265 14.7858 78.122 15.7366L80.8351 20.0702H81.9504V11.5295H80.9114V15.1154C80.9114 16.4333 80.9365 17.4725 81.0374 18.6128L81 18.6257C80.6069 17.7511 80.0994 16.8515 79.4785 15.8503L76.7532 11.5295H75.5363V20.0702H76.5753ZM72.2327 15.1535H68.924V12.4544H72.4356V11.5295H67.808V20.0702H72.6251V19.1447H68.924V16.0662H72.2327V15.1535Z" fill="#083063"/>
<path fill-rule="evenodd" clip-rule="evenodd" d="M16.5035 40.7106C20.279 44.4847 20.279 50.6038 16.5035 54.3779C12.7279 58.152 6.60656 58.152 2.83165 54.3779C-0.943882 50.6038 -0.943882 44.4847 2.83165 40.7106C6.60656 36.9365 12.7279 36.9365 16.5035 40.7106ZM13.0226 42.1657L15.0478 44.1902C15.361 44.5039 15.361 45.0161 15.0478 45.3296L12.8325 47.5443L15.0478 49.7588C15.361 50.0724 15.361 50.5847 15.0478 50.8983L13.0226 52.9221C12.7094 53.2358 12.1963 53.2358 11.8832 52.9221L9.66725 50.7076L7.45187 52.9221C7.13872 53.2358 6.62564 53.2358 6.3125 52.9221L4.28723 50.8983C3.97349 50.5847 3.97349 50.0724 4.28723 49.7588L6.50258 47.5443L4.28723 45.3296C3.97349 45.0161 3.97349 44.5039 4.28723 44.1902L6.3125 42.1657C6.62564 41.8526 7.13872 41.8526 7.45187 42.1657L9.66725 44.3809L11.8832 42.1657C12.1963 41.8526 12.7094 41.8526 13.0226 42.1657Z" fill="#083063"/>
<path fill-rule="evenodd" clip-rule="evenodd" d="M218.898 40.7106C222.673 44.4847 222.673 50.6038 218.898 54.3779C215.122 58.152 209.002 58.152 205.225 54.3779C201.451 50.6038 201.451 44.4847 205.225 40.7106C209.002 36.9365 215.122 36.9365 218.898 40.7106ZM215.417 42.1657L217.442 44.1902C217.756 44.5039 217.756 45.0161 217.442 45.3296L215.226 47.5443L217.442 49.7588C217.756 50.0724 217.756 50.5847 217.442 50.8983L215.417 52.9221C215.104 53.2358 214.591 53.2358 214.277 52.9221L212.062 50.7076L209.847 52.9221C209.532 53.2358 209.02 53.2358 208.707 52.9221L206.681 50.8983C206.368 50.5847 206.368 50.0724 206.681 49.7588L208.898 47.5443L206.681 45.3296C206.368 45.0161 206.368 44.5039 206.681 44.1902L208.707 42.1657C209.02 41.8526 209.532 41.8526 209.847 42.1657L212.062 44.3809L214.277 42.1657C214.591 41.8526 215.104 41.8526 215.417 42.1657Z" fill="#083063"/>
</svg>
