<svg width="45" height="433" viewBox="0 0 45 433" fill="none" xmlns="http://www.w3.org/2000/svg">
<mask id="mask0_19_190" style="mask-type:alpha" maskUnits="userSpaceOnUse" x="0" y="0" width="61" height="433">
<rect width="61" height="433" fill="white"/>
</mask>
<g mask="url(#mask0_19_190)">
<path fill-rule="evenodd" clip-rule="evenodd" d="M-208.073 6.86458L-211 -3.57628e-06L2.40881 -90.9983L5.3359 -84.1337L-208.073 6.86458ZM-196.365 34.3229L-202.219 20.5937L11.1901 -70.4045L17.0442 -56.6754L-196.365 34.3229ZM-184.656 61.7812L-190.51 48.0521L22.8984 -42.9462L28.7526 -29.217L-184.656 61.7812ZM-172.948 89.2396L-178.802 75.5104L34.6067 -15.4879L40.4609 -1.75872L-172.948 89.2396ZM-161.24 116.698L-167.094 102.969L46.3151 11.9704L52.1692 25.6996L-161.24 116.698ZM-149.531 144.156L-155.385 130.427L58.0234 39.4288L63.8776 53.1579L-149.531 144.156ZM-137.823 171.615L-143.677 157.885L69.7317 66.8871L75.5859 80.6163L-137.823 171.615ZM-126.115 199.073L-131.969 185.344L81.44 94.3454L87.2942 108.075L-126.115 199.073ZM-114.406 226.531L-120.26 212.802L93.1484 121.804L99.0025 135.533L-114.406 226.531ZM-102.698 253.99L-108.552 240.26L104.857 149.262L110.711 162.991L-102.698 253.99ZM-90.9896 281.448L-96.8437 267.719L116.565 176.72L122.419 190.45L-90.9896 281.448ZM-79.2812 308.906L-85.1354 295.177L128.273 204.179L134.128 217.908L-79.2812 308.906ZM-67.5729 336.365L-73.4271 322.635L139.982 231.637L145.836 245.366L-67.5729 336.365ZM-55.8645 363.823L-61.7187 350.094L151.69 259.095L157.544 272.825L-55.8645 363.823ZM-44.1562 391.281L-50.0104 377.552L163.398 286.554L169.253 300.283L-44.1562 391.281ZM-32.4479 418.74L-38.302 405.011L175.107 314.012L180.961 327.741L-32.4479 418.74ZM-20.7395 446.198L-26.5937 432.469L186.815 341.471L192.669 355.2L-20.7395 446.198ZM-9.03118 473.656L-14.8853 459.927L198.523 368.929L204.378 382.658L-9.03118 473.656ZM2.67713 501.115L-3.17702 487.386L210.232 396.387L216.086 410.116L2.67713 501.115ZM14.3855 528.573L8.53129 514.844L221.94 423.846L227.794 437.575L14.3855 528.573ZM26.0938 556.031L20.2396 542.302L233.648 451.304L239.503 465.033L26.0938 556.031ZM37.8021 583.49L31.9479 569.76L245.357 478.762L251.211 492.491L37.8021 583.49ZM49.5104 610.948L43.6562 597.219L257.065 506.22L262.919 519.95L49.5104 610.948ZM61.2187 638.406L55.3646 624.677L268.773 533.679L274.628 547.408L61.2187 638.406ZM70 659L67.0729 652.135L280.482 561.137L283.409 568.002L70 659Z" fill="white"/>
</g>
</svg>
