<svg width="137" height="59" viewBox="0 0 137 59" fill="none" xmlns="http://www.w3.org/2000/svg">
<path fill-rule="evenodd" clip-rule="evenodd" d="M21.4226 0.543762H61.2286L66.4644 11.6922L60.4602 24.9096L54.0819 11.4039H38.8901L55.1628 45.8603L76.2586 0.543762H116.064L88.6543 58.9836H76.1978L71.0338 47.987L77.0187 34.756L82.3244 45.8603L98.5971 11.4039H83.4053L61.2894 58.9836H48.8325L21.4226 0.543762Z" fill="#CC9753"/>
<path fill-rule="evenodd" clip-rule="evenodd" d="M16.3739 17.213C16.7243 16.7745 17.075 16.7746 17.5573 16.7746C18.0392 16.7746 17.9519 16.7307 18.6091 16.7746C19.2664 16.8184 19.7048 16.8622 20.0994 16.8622C20.4936 16.8622 20.7128 16.8184 20.932 17.1253C21.1512 17.4318 21.2828 17.4757 21.3266 17.9141C21.3704 18.3525 21.4577 19.3605 21.4577 19.7547C21.4577 20.1493 21.4577 22.6037 21.4577 22.8668C21.4577 23.1298 21.4577 23.9186 21.4577 23.9186C21.4577 23.9186 21.677 24.2255 21.8085 24.5759C21.94 24.9266 21.8962 25.6281 22.3346 25.6281C22.7726 25.6281 23.1672 25.9788 23.2987 25.4089C23.4303 24.8389 23.8249 22.9983 23.7591 22.0561C23.6933 21.1135 23.496 21.0477 23.5399 20.3685C23.5837 19.689 23.6057 19.4263 23.6933 18.8125C23.7806 18.1991 23.7806 18.1548 23.8245 17.8045C23.8683 17.4537 23.8026 17.0376 24.0656 16.928C24.3287 16.8184 24.3506 16.6211 24.789 16.5115C25.2271 16.4019 25.534 16.38 26.0601 16.4019C26.5858 16.4238 27.1338 16.4677 27.4188 16.4896C27.7034 16.5115 27.8788 16.4457 27.9226 17.0372C27.9665 17.6291 28.0103 18.3744 27.9665 18.8563C27.9226 19.3386 27.9226 20.1712 27.9226 20.3904C27.9226 20.6096 28.2734 21.2231 28.2734 21.6176C28.2734 22.0122 28.2295 22.2968 28.3611 22.7133C28.4926 23.1298 28.7333 23.5021 28.6895 23.8529C28.646 24.2036 28.5583 24.4663 28.9306 24.3132C29.3033 24.1598 29.369 24.1378 29.5663 23.809C29.7636 23.4802 29.5225 23.0641 29.9828 22.7791C30.4428 22.4941 30.4867 22.6037 30.4867 22.0122C30.4867 21.4204 30.3551 20.3247 30.4867 19.8643C30.6182 19.4044 30.9908 19.229 30.9908 18.8782C30.9908 18.5275 30.9908 18.0456 30.9908 17.6949C30.9908 17.3441 31.0347 16.928 31.2097 16.928C31.385 16.928 31.8235 17.0595 32.0208 16.8403C32.218 16.6211 32.1742 16.3142 32.6565 16.4019C33.1384 16.4896 33.2699 16.4238 33.533 16.5992C33.796 16.7746 34.1906 16.7746 34.4533 16.7746C34.7163 16.7746 34.804 16.665 35.0228 16.7965C35.2421 16.928 35.5709 16.7526 35.5051 17.2345C35.4394 17.7168 35.2859 18.4179 35.2859 18.7248C35.2859 19.0317 35.264 19.3824 35.1544 19.6232C35.0451 19.8643 34.7382 20.1493 34.5629 20.3247C34.3875 20.5 34.1683 20.6973 34.3656 21.0039C34.5629 21.3107 34.7383 21.4642 34.7383 21.7273C34.7383 21.9899 34.7602 22.0776 34.7383 22.253C34.7163 22.4283 34.4533 22.516 34.3437 22.6695C34.234 22.8229 33.9052 22.8449 33.8614 23.1079C33.8176 23.3706 33.6422 23.4802 33.8175 23.5679C33.9929 23.6556 34.2121 23.7871 34.2121 23.9625C34.2121 24.1378 34.1244 25.0362 34.0806 25.2993C34.0368 25.5623 33.7299 25.8035 33.8614 26.2634C33.9929 26.7238 34.0587 27.1838 34.0148 27.403C33.971 27.6222 33.9495 27.8852 33.7741 27.951C33.5987 28.0168 33.4014 27.9729 33.1603 27.9729C32.9192 27.9729 32.3934 27.7537 32.4373 28.1045C32.4811 28.4548 32.3277 28.5206 32.678 28.5206C33.0288 28.5206 33.6206 28.1264 33.6645 28.6521C33.7083 29.1782 33.8395 29.2878 33.7522 29.7259C33.6645 30.1643 33.3795 30.4493 33.3576 30.7781C33.3357 31.1065 33.3137 31.1942 33.248 31.4134C33.1822 31.6326 33.0945 35.1389 33.0945 35.6869C33.0945 36.2346 33.2041 37.0895 33.0726 37.5495C32.9411 38.0098 32.8534 38.5356 32.8095 39.2809C32.7657 40.0258 32.5469 41.4503 32.525 41.8011C32.5027 42.1514 32.4373 42.6337 32.3934 42.8748C32.3496 43.116 32.1523 43.3571 31.5604 43.3352C30.9689 43.3133 30.2017 43.3348 29.5006 43.3571C28.7995 43.379 28.098 43.4448 27.9007 43.3352C27.7034 43.2256 27.66 43.3348 27.4407 42.7433C27.2215 42.1514 27.1558 41.9984 27.2215 41.4503C27.2873 40.9023 27.0681 39.7628 27.1777 39.1055C27.2873 38.4483 27.375 37.7687 27.3092 37.3084C27.2434 36.8484 26.8708 36.8045 26.8708 36.2346C26.8708 35.665 26.8927 35.2047 26.805 34.9635C26.7173 34.7224 26.7173 34.4159 26.52 34.394C26.3231 34.372 25.9505 34.3282 25.6655 34.4597C25.3805 34.5913 25.2709 34.4816 25.1394 35.2923C25.0079 36.1031 24.7671 37.9002 24.7671 38.5356C24.7671 39.1713 24.8109 39.9824 24.6794 40.5081C24.5479 41.0338 24.4383 41.3407 24.4383 41.7792C24.4383 42.2176 24.5917 42.6337 24.2629 42.8529C23.9341 43.0721 23.6491 43.1379 23.0795 43.1379C22.51 43.1379 22.3565 43.116 21.5893 43.1817C20.8224 43.2475 20.1428 43.3571 19.7048 43.1817C19.2664 43.0064 18.9156 42.9187 18.9814 42.5899C19.0472 42.2614 18.8499 41.1434 18.8499 40.4643C18.8499 39.7851 18.6307 38.9959 18.6307 38.5794C18.6307 38.1633 18.7183 37.1772 18.7183 37.1772C18.7183 37.1772 18.7403 37.0015 18.9814 36.9361C19.2225 36.8703 19.3979 36.6073 19.2225 36.5196C19.0472 36.4319 18.5649 36.8484 18.7183 36.2565C18.8718 35.665 18.653 35.2047 18.5653 34.832C18.4776 34.4597 18.346 33.9994 18.368 33.8021C18.3899 33.6048 18.1707 32.2461 18.1268 31.808C18.083 31.3696 17.8199 30.6685 17.8199 30.4054C17.8199 30.1424 17.8199 29.1563 17.8199 29.1563C17.8199 29.1563 17.8419 28.126 17.8857 27.7318C17.9296 27.3372 18.0172 26.9649 17.8857 26.7896C17.7542 26.6142 17.3161 26.11 17.4911 26.0442C17.6665 25.9785 17.7542 26.11 18.0172 25.8031C18.2803 25.4966 18.3461 25.4966 18.4776 25.0143C18.6091 24.5324 18.653 24.094 18.4118 24.0282C18.1707 23.9625 17.7761 23.7652 17.7323 23.8967C17.6884 24.0282 17.8199 24.4228 17.535 24.3351C17.2504 24.2474 17.2284 23.9405 17.2284 23.9405C17.2284 23.9405 17.0531 21.5519 17.0531 20.9381C17.0531 20.3247 17.0531 19.6893 16.9435 19.492C16.8339 19.2947 16.6585 19.2071 16.6585 18.8563C16.6585 18.5056 16.527 17.8922 16.527 17.8922L16.3739 17.213ZM33.7522 19.6451C33.7083 20.0616 33.6645 20.3904 33.511 20.4781C33.3576 20.5658 32.7657 20.7192 32.8972 20.3466C33.0288 19.9739 33.0507 19.7332 32.9411 19.5797C32.8315 19.4259 33.5987 19.1632 33.7522 19.6451ZM30.7936 28.2794C30.5086 28.389 30.1363 28.5644 30.1363 28.7617C30.1363 28.959 30.3551 29.1125 29.8732 29.1344C29.391 29.1563 28.8429 28.8713 28.9964 28.674C29.1498 28.4767 29.5444 28.6302 29.6321 28.3017C29.7198 27.9729 30.8155 27.8414 30.7936 28.2794ZM28.3172 25.9346C28.098 26.1319 27.5065 26.2634 27.4627 25.9127C27.4188 25.5623 27.2215 25.2993 27.55 25.2335C27.8788 25.1678 28.2734 25.1458 28.3611 25.2993C28.4487 25.4527 28.3172 25.9346 28.3172 25.9346ZM28.6679 32.246C28.6679 32.5749 28.7995 32.9475 28.4926 32.9475C28.1857 32.9475 27.9446 32.8598 27.9446 32.5529C27.9446 32.2461 28.098 32.0272 28.098 32.0272L28.6679 32.246ZM23.8245 32.6626C23.518 32.7941 23.2549 33.0352 23.1672 32.7064C23.0795 32.3776 22.948 32.0711 23.1672 32.0711C23.3864 32.0711 23.8029 32.1803 23.8029 32.1803L23.8245 32.6626Z" fill="#FEFEFE"/>
<path fill-rule="evenodd" clip-rule="evenodd" d="M39.3156 18.1106C39.7102 17.4533 39.8413 17.278 40.4551 16.8834C41.0686 16.4892 41.3754 16.6207 41.9892 16.3577C42.6027 16.0946 43.1288 15.9631 43.8299 15.9631C44.5314 15.9631 45.627 15.9631 46.4158 15.9631C47.2046 15.9631 48.1249 16.0508 48.4757 16.27C48.8264 16.4892 50.0975 17.1026 50.5797 17.4095C51.0616 17.7164 51.5877 18.4175 51.7631 18.9432C51.9381 19.4693 51.5439 20.1266 51.807 20.4335C52.0696 20.7404 52.4204 20.8719 52.3327 21.6169C52.245 22.3622 51.9819 22.7568 51.9381 23.3702C51.8946 23.9836 51.8946 25.2989 51.9381 26.3507C51.9819 27.4026 52.0258 33.8455 51.9381 34.1086C51.8508 34.3713 51.5001 33.9332 51.5439 35.292C51.5877 36.6503 51.4124 38.4913 51.4124 39.1924C51.4124 39.8939 51.3247 40.4196 51.1493 40.9458C50.9739 41.4719 50.5797 41.9976 50.0098 42.3922C49.4402 42.7868 48.388 43.4002 47.1169 43.5755C45.8459 43.7509 44.0929 43.7509 43.1726 43.7948C42.2519 43.8386 41.5508 43.9263 40.8497 43.0494C40.1482 42.173 39.3595 41.9538 38.921 41.6472C38.4826 41.3403 37.8253 40.7704 37.6061 40.3758C37.3869 39.9816 37.3873 39.4993 37.8692 39.6309C38.3511 39.7624 38.6141 40.0693 38.8333 39.3678C39.0526 38.6667 39.0964 38.3598 38.7018 37.8779C38.3072 37.3956 37.8692 37.0888 37.8253 36.3438C37.7815 35.5985 37.9569 31.7415 37.9569 31.0842C37.9569 30.4266 37.5623 28.1037 37.5623 27.6218C37.5623 27.1395 38.1322 25.7808 38.0884 25.2112C38.0446 24.6412 38.7457 22.7129 38.4826 21.7922C38.2196 20.8719 38.1322 19.8639 38.2196 19.557C38.3072 19.2501 39.3156 18.1106 39.3156 18.1106ZM46.1528 18.1544C46.7666 18.5929 47.0731 18.7682 46.8543 19.2501C46.635 19.7324 46.0655 20.3458 46.4158 20.8281C46.7666 21.3104 47.0731 21.7922 47.0731 22.3622C47.0731 22.9318 47.0731 24.0275 47.0731 24.3344C47.0731 24.6413 47.6869 25.7369 47.6869 25.7369C47.6869 25.7369 47.5115 25.7808 47.5115 26.5696C47.5115 27.3587 47.2923 28.4544 47.38 28.9367C47.4677 29.4186 47.5554 29.9447 47.5115 30.3827C47.4677 30.8212 47.2046 31.6538 47.2046 31.6538C47.2046 31.6538 47.7307 31.6538 47.7307 32.0484C47.7307 32.4429 47.0292 33.1002 47.0292 33.714C47.0292 34.3274 47.0731 35.3358 47.0731 35.9492C47.0731 36.5626 46.7227 38.579 46.6351 38.8421C46.5474 39.1051 45.6709 39.7185 45.6709 39.7185C45.6709 39.7185 44.9256 39.4116 44.356 39.4555C43.786 39.4993 42.778 39.9378 42.778 38.8859C42.778 37.8341 42.6027 36.6503 42.6465 35.5546C42.6904 34.4589 42.8219 30.3827 43.0411 29.7255C43.2599 29.0682 42.9534 27.7095 43.0411 26.8326C43.1288 25.9561 43.0411 25.0793 43.0411 24.3344C43.0411 23.5894 43.3038 21.2665 43.3038 21.2665C43.3038 21.2665 44.9694 20.5212 45.1448 20.1708C45.3202 19.8201 44.7502 19.2063 45.2763 18.8559C45.8024 18.5052 46.1528 18.1544 46.1528 18.1544ZM47.2923 38.2721C47.2265 37.8556 47.095 37.7899 47.4896 37.5053C47.8842 37.2203 48.0376 36.8914 48.3441 37.1326C48.651 37.3737 48.7606 37.3299 49.0018 37.8118C49.2429 38.294 49.0018 38.9294 49.1333 39.2801C49.2645 39.6309 49.3087 40.0912 48.958 40.2008C48.6072 40.31 47.9061 40.42 47.9061 39.9158C47.9061 39.4116 47.9719 38.6229 47.9719 38.6229L47.2923 38.2721ZM48.6949 36.7818C48.5195 36.7599 48.1472 36.7818 48.2126 36.4749C48.2784 36.1684 48.2784 35.9273 48.4976 35.9273C48.7168 35.9273 49.0895 35.8396 49.1552 36.1246C49.221 36.4096 48.936 36.7599 48.6949 36.7818ZM39.8323 34.8097C39.9782 34.9371 40.2877 35.0648 40.4336 35.3018C40.5795 35.5384 40.7617 35.7572 40.7617 35.9031C40.7617 36.049 40.5795 36.3771 40.4703 36.1401C40.3606 35.9031 39.8504 35.7391 39.9234 35.9394C39.9963 36.1401 40.1785 36.3585 39.951 36.8915C39.8414 37.1107 38.8772 36.1681 38.8991 35.9054C38.921 35.6423 39.0964 35.2477 39.1622 35.007C39.2279 34.7658 39.2498 34.3493 39.2498 34.3493L39.8323 34.8097ZM40.2359 34.3932C40.0825 34.437 39.5564 34.3932 39.5564 34.0424C39.5564 33.6921 39.5564 33.429 39.7317 33.2537C39.9071 33.0783 39.929 32.6622 40.1702 32.5526C40.4113 32.443 40.7617 32.3333 40.7617 32.7056C40.7617 33.0783 40.3675 33.8017 40.2359 34.3932ZM48.7826 27.5118C48.9576 27.5779 49.0018 28.0817 48.7607 28.1694C48.5195 28.2571 48.0592 28.3448 48.0372 28.0379C48.0153 27.731 47.7742 27.1395 48.0372 27.1614C48.3003 27.1834 48.7826 27.5118 48.7826 27.5118ZM48.7387 26.9422C48.7387 26.723 48.9576 26.2192 48.9576 26.2192C48.9576 26.2192 49.3522 26.0654 49.4179 26.438C49.4837 26.8107 49.6371 27.1395 49.4837 27.271C49.3302 27.4026 48.8918 27.2272 48.7387 26.9422ZM40.5954 24.2686C40.7828 24.7509 41.1037 24.9701 41.2107 25.2985C41.3176 25.6273 41.3176 25.8246 40.9431 26.0877C40.5685 26.3507 39.7658 26.8545 40.1259 26.263C40.2136 25.6712 39.2933 25.1012 39.2495 24.8166C39.2056 24.5316 39.4468 24.2686 39.5783 23.9617C39.7098 23.6552 39.4029 22.8879 39.7098 22.9099C40.0167 22.9318 40.1483 22.7129 40.4548 22.9537C40.7617 23.1948 40.9589 24.1809 40.5954 24.2686ZM49.2864 24.1371C49.0891 24.0713 48.7603 23.9617 48.848 23.6771C48.9356 23.3921 49.1987 23.0852 49.3302 23.3263C49.4617 23.5675 49.2864 24.1371 49.2864 24.1371ZM50.9301 29.7693C50.8863 30.0758 50.3163 30.8431 50.3163 30.8431C50.3163 30.8431 49.6591 31.15 49.8563 30.5581C50.0533 29.9666 50.1629 29.4186 50.2944 29.3967C50.4259 29.3747 50.9301 29.7693 50.9301 29.7693Z" fill="#FEFEFE"/>
<path fill-rule="evenodd" clip-rule="evenodd" d="M69.3187 41.6725C68.9241 42.3298 68.7925 42.5052 68.1791 42.8998C67.5653 43.294 67.2588 43.1624 66.645 43.4255C66.0312 43.6885 65.5055 43.8201 64.804 43.8201C64.1029 43.8201 63.0072 43.8201 62.2181 43.8201C61.4293 43.8201 60.5089 43.7324 60.1582 43.5132C59.8075 43.294 58.5368 42.6806 58.0545 42.3737C57.5723 42.0668 57.0461 41.3656 56.8711 40.8395C56.6958 40.3138 57.0904 39.6562 56.8273 39.3496C56.5643 39.0428 56.2135 38.9112 56.3012 38.1659C56.3889 37.421 56.6519 37.0264 56.6958 36.4129C56.7396 35.7995 56.7396 34.4843 56.6958 33.4324C56.6519 32.3806 56.6081 25.9376 56.6958 25.6746C56.7835 25.4119 57.1338 25.8499 57.09 24.4912C57.0465 23.1328 57.2215 21.2918 57.2215 20.5903C57.2215 19.8892 57.3092 19.3635 57.4846 18.8374C57.6599 18.3113 58.0545 17.7856 58.6241 17.391C59.1941 16.9964 60.2459 16.383 61.517 16.2076C62.788 16.0322 64.5409 16.0322 65.4616 15.9884C66.382 15.9445 67.0831 15.8569 67.7845 16.7337C68.486 17.6102 69.2748 17.8294 69.7128 18.1359C70.1513 18.4428 70.8085 19.0128 71.0277 19.4073C71.247 19.8015 71.247 20.2838 70.7647 20.1523C70.2828 20.0208 70.0198 19.7139 69.8005 20.4154C69.5817 21.1165 69.5379 21.4234 69.9321 21.9052C70.3267 22.3875 70.7647 22.6944 70.8085 23.4394C70.8524 24.1847 70.6774 28.0417 70.6774 28.6989C70.6774 29.3562 71.0716 31.6795 71.0716 32.1614C71.0716 32.6436 70.502 34.0024 70.5459 34.5719C70.5897 35.1419 69.8882 37.0702 70.1513 37.9909C70.4143 38.9112 70.502 39.9192 70.4143 40.2261C70.3266 40.533 69.3187 41.6725 69.3187 41.6725ZM62.4811 41.6287C61.8677 41.1903 61.5608 41.0149 61.78 40.533C61.9992 40.0508 62.5688 39.4373 62.2181 38.9551C61.8677 38.4728 61.5608 37.9909 61.5608 37.421C61.5608 36.8514 61.5608 35.7557 61.5608 35.4488C61.5608 35.1419 60.947 34.0462 60.947 34.0462C60.947 34.0462 61.1224 34.0024 61.1224 33.2132C61.1224 32.4244 61.3416 31.3287 61.2539 30.8465C61.1662 30.3646 61.0785 29.8385 61.1224 29.4C61.1662 28.962 61.4293 28.1294 61.4293 28.1294C61.4293 28.1294 60.9032 28.1294 60.9032 27.7348C60.9032 27.3402 61.6046 26.6829 61.6046 26.0691C61.6046 25.4557 61.5608 24.4473 61.5608 23.8339C61.5608 23.2205 61.9115 21.2041 61.9992 20.9411C62.0865 20.678 62.9634 20.0646 62.9634 20.0646C62.9634 20.0646 63.7083 20.3715 64.2783 20.3277C64.8478 20.2838 65.8558 19.8454 65.8558 20.8972C65.8558 21.9491 66.0312 23.1328 65.9874 24.2285C65.9435 25.3242 65.812 29.4004 65.5932 30.0577C65.3739 30.7149 65.6808 32.0737 65.5932 32.9505C65.5055 33.827 65.5932 34.7035 65.5932 35.4488C65.5932 36.1937 65.3301 38.5166 65.3301 38.5166C65.3301 38.5166 63.6645 39.2616 63.4895 39.6123C63.3141 39.9631 63.8837 40.5769 63.358 40.9272C62.8319 41.278 62.4811 41.6287 62.4811 41.6287ZM61.3416 21.511C61.4073 21.9272 61.5389 21.9933 61.1443 22.2779C60.7501 22.5629 60.5966 22.8917 60.2897 22.6506C59.9828 22.4094 59.8732 22.4533 59.6325 21.971C59.3913 21.4891 59.6321 20.8538 59.5009 20.503C59.3694 20.1523 59.3256 19.692 59.6763 19.5823C60.0267 19.4731 60.7282 19.3631 60.7282 19.8673C60.7282 20.3715 60.6624 21.1603 60.6624 21.1603L61.3416 21.511ZM59.939 23.0013C60.1144 23.0232 60.487 23.0013 60.4213 23.3078C60.3555 23.6147 60.3555 23.8559 60.1363 23.8559C59.9175 23.8559 59.5448 23.9435 59.479 23.6586C59.4133 23.3736 59.6982 23.0232 59.939 23.0013ZM68.8016 24.9735C68.6561 24.8461 68.3462 24.7183 68.2003 24.4814C68.0544 24.2444 67.8722 24.0259 67.8722 23.88C67.8722 23.7342 68.0544 23.4061 68.164 23.6431C68.2732 23.88 68.7835 24.0441 68.7105 23.8438C68.6376 23.6431 68.4554 23.4246 68.6833 22.8917C68.7925 22.6725 69.7567 23.6151 69.7352 23.8778C69.7132 24.1408 69.5379 24.5354 69.4721 24.7762C69.4063 25.0173 69.3844 25.4338 69.3844 25.4338L68.8016 24.9735ZM68.3983 25.39C68.5518 25.3461 69.0775 25.39 69.0775 25.7403C69.0775 26.0911 69.0775 26.3541 68.9021 26.5295C68.7268 26.7049 68.7048 27.121 68.4641 27.2306C68.223 27.3402 67.8722 27.4498 67.8722 27.0771C67.8722 26.7049 68.2668 25.9815 68.3983 25.39ZM59.8517 32.271C59.6763 32.2052 59.6325 31.7014 59.8736 31.6137C60.1148 31.526 60.5751 31.4383 60.5966 31.7452C60.6186 32.0521 60.8597 32.6436 60.5966 32.6217C60.334 32.5998 59.8517 32.271 59.8517 32.271ZM59.8955 32.8409C59.8955 33.0601 59.6763 33.5639 59.6763 33.5639C59.6763 33.5639 59.2821 33.7178 59.216 33.3451C59.1502 32.9724 58.9968 32.6436 59.1502 32.5121C59.3037 32.3806 59.7421 32.5559 59.8955 32.8409ZM68.0385 35.5146C67.8514 35.0323 67.5306 34.8131 67.4232 34.4847C67.3163 34.1558 67.3162 33.9585 67.6908 33.6955C68.0654 33.4324 68.8681 32.9286 68.5079 33.5201C68.4203 34.112 69.3406 34.6819 69.3844 34.9665C69.4283 35.2515 69.1875 35.5146 69.056 35.8215C68.9244 36.128 69.2313 36.8952 68.9244 36.8733C68.6175 36.8514 68.486 37.0702 68.1791 36.8295C67.8726 36.5883 67.6753 35.6023 68.0385 35.5146ZM59.3475 35.6461C59.5448 35.7119 59.8736 35.8215 59.7859 36.1061C59.6982 36.391 59.4352 36.6979 59.3037 36.4568C59.1725 36.2157 59.3475 35.6461 59.3475 35.6461ZM57.7042 30.0138C57.748 29.7073 58.3176 28.9401 58.3176 28.9401C58.3176 28.9401 58.9752 28.6332 58.7779 29.2251C58.5806 29.8166 58.471 30.3646 58.3395 30.3865C58.208 30.4084 57.7042 30.0138 57.7042 30.0138Z" fill="#FEFEFE"/>
<path fill-rule="evenodd" clip-rule="evenodd" d="M82.0284 18.8321C82.0284 18.8321 82.7734 19.9278 82.9487 20.2786C83.1241 20.6293 83.606 20.7604 83.5187 21.3742C83.431 21.9877 83.4749 24.4859 83.4749 25.0559C83.4749 25.6255 83.606 26.4146 83.606 27.028C83.606 27.6418 83.6498 28.6498 83.5625 29.3071C83.4748 29.9647 83.2995 31.1043 83.431 32.0684C83.5625 33.0326 83.8252 34.8297 83.8691 35.4432C83.9129 36.057 83.8691 36.9773 83.606 37.7226C83.3433 38.4675 83.0364 39.2125 82.4226 39.344C81.8092 39.4755 81.7654 39.9578 81.3269 39.4317C80.8889 38.906 80.5382 39.0375 80.2751 38.4675C80.012 37.8976 79.8805 37.6345 79.9682 37.0649C80.0559 36.4954 79.7055 35.5308 79.7055 34.6544C79.7055 33.7779 79.9244 33.1203 79.8805 32.3753C79.8367 31.6304 79.8367 30.7535 79.8367 29.7894C79.8367 28.8252 79.6617 26.5019 79.6179 25.9324C79.574 25.3628 79.574 24.004 79.574 23.6095C79.574 23.2149 79.4863 22.2507 79.4425 21.9438C79.3986 21.6373 79.3986 20.2347 79.3986 19.8401C79.3986 19.4456 79.6179 18.7444 79.6179 18.7444C79.6179 18.7444 82.16 18.2183 82.0284 18.8321ZM76.0674 16.6408C76.0674 16.6408 77.7768 16.29 78.0399 16.1585C78.3026 16.027 80.2751 16.1585 81.1516 16.1585C82.0284 16.1585 82.6418 16.0708 83.2118 16.1147C83.7814 16.1585 84.7898 16.29 85.447 16.5969C86.1043 16.9034 86.4989 17.1665 87.025 17.7803C87.5507 18.3937 87.9891 18.7883 88.0768 19.314C88.1645 19.8401 88.3837 20.322 88.5152 20.8043C88.6464 21.2866 88.7341 21.9877 88.7341 22.7768C88.7341 23.5656 88.6464 28.9567 88.6464 29.5263C88.6464 30.0963 88.6464 37.7226 88.5587 38.1168C88.4714 38.5114 88.296 39.8263 88.2083 40.4397C88.1207 41.0535 87.9014 41.93 87.2876 42.4122C86.6742 42.8941 85.8416 43.2887 85.0086 43.4202C84.176 43.5518 82.9049 43.6394 82.4226 43.4641C81.9407 43.2887 81.1077 43.6833 81.1077 43.6833L80.1436 43.201L79.3548 43.3764C79.3548 43.3764 78.8287 43.3764 78.303 43.4202C77.7768 43.4641 77.3388 43.2449 76.8565 43.2449C76.3743 43.2449 76.2431 43.1133 75.5416 43.1572C74.8401 43.201 74.709 43.4641 74.709 42.9818C74.709 42.4999 74.7528 41.36 74.709 40.7904C74.6651 40.2209 74.6652 39.9578 74.7967 39.3002C74.9278 38.6429 74.9717 38.1606 74.9717 37.6349C74.9717 37.1088 75.1909 31.8931 75.147 31.192C75.1032 30.4905 75.1909 28.606 75.147 28.2553C75.1032 27.9045 75.0594 27.0281 75.0594 26.765C75.0594 26.5023 74.9717 23.2149 75.0594 22.5576C75.147 21.9 75.2347 20.9797 75.147 20.5416C75.0594 20.1032 74.8401 17.4734 74.9278 17.2107C75.0155 16.9477 76.0674 16.6408 76.0674 16.6408Z" fill="#FEFEFE"/>
<path fill-rule="evenodd" clip-rule="evenodd" d="M92.6489 17.2338C92.7804 16.8834 93.175 16.3134 93.6135 16.4888C94.0515 16.6642 94.8403 16.708 95.5418 16.6642C96.2433 16.6203 97.7774 16.445 98.5661 16.5326C99.3549 16.6203 100.67 16.7519 100.67 16.7519C100.67 16.7519 100.889 16.8395 101.634 16.8395C102.379 16.8395 102.993 16.8395 103.3 16.8395C103.606 16.8395 104.351 16.8834 104.264 17.1899C104.176 17.4968 103.65 18.7679 103.562 19.2063C103.475 19.6447 103.256 20.2581 102.949 20.4335C102.642 20.6089 101.766 21.2661 101.766 20.6089C101.766 19.9512 101.634 19.7759 101.371 19.557C101.108 19.3378 100.407 18.9432 100.144 19.1186C99.8811 19.294 99.9249 19.294 99.9687 19.7759C100.013 20.2581 99.9249 20.4335 99.5741 20.565C99.2234 20.6966 98.9169 20.7404 98.4785 20.9154C98.04 21.0908 97.7331 20.7842 97.7331 21.5292C97.7331 22.2741 97.5578 23.326 97.5578 23.9398C97.5578 24.5536 97.6454 26.3942 97.6893 26.7449C97.7331 27.0953 97.7331 27.7091 97.9962 27.7968C98.2592 27.8845 98.785 27.6653 98.785 28.2787C98.785 28.8925 98.6973 29.6813 98.6973 29.6813C98.6973 29.6813 98.8727 30.2512 99.2672 29.6813C99.6618 29.1117 99.618 28.6733 100.363 28.5856C101.108 28.4979 101.152 28.5417 101.59 28.3225C102.029 28.1037 102.467 28.0598 102.817 28.0598C103.168 28.0598 103.343 27.4899 103.3 28.1037C103.256 28.7171 103.08 30.9965 103.124 31.4346C103.168 31.8726 103.387 32.1795 102.817 32.048C102.248 31.9165 101.678 31.7415 101.327 31.6976C100.977 31.6538 100.188 31.3907 100.188 31.3907C100.188 31.3907 99.7495 31.5661 99.7495 31.2154C99.7495 30.8646 99.6618 30.5581 99.3549 30.5143C99.048 30.4704 98.6973 30.2074 98.7411 30.6892C98.785 31.1715 99.048 31.4784 98.6535 31.5661C98.2593 31.6538 97.6455 31.9165 97.6455 31.9165L97.4701 33.0125C97.4701 33.0125 97.032 33.3629 97.1636 34.0205C97.2951 34.6778 96.9444 38.1402 97.032 38.5348C97.1197 38.9294 96.9005 39.6743 97.2512 39.7182C97.6016 39.762 97.3389 40.2443 98.1277 40.2443C98.9165 40.2443 99.048 40.1127 99.5741 40.2443C100.1 40.3758 100.407 40.9015 100.801 40.6823C101.196 40.4635 101.196 40.2881 101.546 40.1566C101.897 40.0251 101.634 39.8058 102.248 39.8058C102.861 39.8058 103.3 39.3674 103.3 39.9374C103.3 40.5073 103.124 42.6549 103.124 42.6549C103.124 42.6549 103.168 43.4436 102.817 43.3121C102.467 43.1806 101.809 43.0929 101.196 43.0929C100.582 43.0929 96.2871 43.0491 95.9364 43.0491C95.5856 43.0491 94.0515 43.1806 93.7884 43.1806C93.5258 43.1806 92.2547 43.5752 92.2547 42.9614C92.2547 42.348 92.1232 41.7342 92.2986 41.4276C92.4739 41.1207 92.7805 40.77 92.8243 40.4196C92.8681 40.0689 92.5174 40.1566 92.5174 39.7182C92.5174 39.2801 92.0355 39.1924 92.5174 38.8417C92.9997 38.491 93.175 38.2279 93.175 38.2279C93.175 38.2279 92.6489 38.0529 92.6489 37.746C92.6489 37.4391 92.6051 36.8253 92.6051 36.8253C92.6051 36.8253 92.9558 36.1242 92.8243 35.3354C92.6928 34.5463 92.6489 33.3194 92.6489 32.9249C92.6489 32.5303 92.7804 26.175 92.7804 26.175C92.7804 26.175 92.9558 19.8197 92.9558 19.4693C92.9558 19.1186 92.7366 17.8037 92.7366 17.8037L92.6489 17.2338ZM95.4847 38.6663C95.6778 39.0526 96.3056 39.4392 96.4024 40.0186C96.4987 40.5984 96.7403 41.0331 96.4182 40.8139C96.1117 40.8139 94.8407 41.6907 94.4461 41.7342C94.0515 41.778 93.6569 41.3838 94.0515 41.1207C94.4461 40.8577 94.4468 40.2862 94.8403 40.2443C95.2341 40.2019 95.476 40.2004 95.4541 39.9812C95.4322 39.762 95.2129 39.6524 95.0814 39.4551C94.9499 39.2582 94.6434 39.1705 94.8403 38.9513C95.0376 38.7321 95.3883 38.4033 95.4847 38.6663ZM94.3803 39.8497C94.3146 40.0031 93.9857 40.0032 93.9638 39.7839C93.9419 39.5647 93.8761 39.4332 94.0515 39.4332C94.2269 39.4332 94.5992 39.7401 94.3803 39.8497ZM94.4242 37.0664C94.183 37.3178 94.1173 37.706 93.8981 37.5918C93.6789 37.4777 93.3939 37.5234 93.5692 37.2637C93.7446 37.0007 94.3803 36.8476 94.4242 37.0664ZM94.468 35.4012C94.2926 35.4012 94.0734 35.4447 94.1173 35.2039C94.1611 34.9628 94.1392 34.7435 94.3365 34.8751C94.5338 35.0066 94.7307 35.2916 94.468 35.4012Z" fill="#FEFEFE"/>
<path fill-rule="evenodd" clip-rule="evenodd" d="M120.555 24.8673C120.555 24.8673 119.459 24.7361 119.152 24.7361C118.845 24.7361 117.75 24.7361 117.75 24.7361L116.522 24.78C116.522 24.78 116.347 23.947 116.347 23.6401C116.347 23.3336 116.347 22.369 116.347 22.369C116.347 22.369 116.128 22.106 116.084 21.7556C116.04 21.4049 115.909 20.4845 115.909 20.4845C115.909 20.4845 115.076 20.1338 114.594 20.09C114.112 20.0461 113.805 19.8269 113.498 19.9584C113.191 20.09 112.841 20.1776 112.797 20.5284C112.753 20.8791 112.402 21.186 112.358 21.4925C112.315 21.7994 112.183 22.939 112.183 23.202C112.183 23.4647 112.402 28.1547 112.402 28.6366C112.402 29.1189 112.051 30.1707 112.051 30.1707L111.832 30.9599C111.832 30.9599 112.227 31.3102 112.315 31.7048C112.402 32.0994 112.446 32.2744 112.315 32.6251C112.183 32.9759 111.745 33.4578 112.008 33.5893C112.271 33.7208 112.446 33.6331 112.446 34.0716C112.446 34.51 112.534 36.0876 112.534 36.4383C112.534 36.7891 112.753 37.3148 112.753 37.8847C112.753 38.4543 112.665 39.0243 112.665 39.4627C112.665 39.9007 112.621 40.5145 112.709 40.8214C112.797 41.1279 112.841 41.4348 113.366 41.3033C113.893 41.1718 113.586 40.9087 113.936 40.7776C114.287 40.6461 114.419 40.383 114.594 40.7337C114.769 41.0841 114.988 41.7414 115.207 41.2595C115.427 40.7776 115.295 40.6022 115.689 40.6022C116.084 40.6022 116.566 40.6899 116.654 40.383C116.742 40.0761 116.698 39.4627 116.698 39.4627C116.698 39.4627 116.128 39.4627 116.347 38.7612C116.566 38.0601 116.61 37.4902 116.654 37.1833C116.698 36.8767 116.698 36.7448 116.698 36.3506C116.698 35.956 116.61 35.6057 116.61 35.3426C116.61 35.0796 116.61 34.7292 116.654 34.4661C116.698 34.2031 116.522 33.94 116.522 33.6331C116.522 33.3262 115.996 33.1074 116.698 33.1074C117.399 33.1074 117.486 32.8882 117.706 33.2389C117.925 33.5893 118.582 33.6331 118.582 33.6331C118.582 33.6331 118.494 33.0632 118.889 33.0197C119.284 32.9759 119.59 32.9759 119.985 32.9759C120.379 32.9759 120.642 32.5374 120.686 32.9759C120.73 33.4139 120.774 34.4658 120.817 34.7727C120.861 35.0796 120.905 36.0437 120.905 36.0437C120.905 36.0437 120.686 36.6137 120.423 36.5698C120.16 36.526 119.941 35.956 119.634 36.3068C119.327 36.6575 118.933 36.8767 118.933 36.8767L118.188 37.1833C118.188 37.1833 117.574 37.4467 118.013 37.7532C118.451 38.0601 119.021 38.1916 119.021 38.1916C119.021 38.1916 119.196 37.9724 119.284 37.6655C119.371 37.3586 119.809 37.0082 119.941 37.3586C120.072 37.7094 120.204 38.1478 120.204 38.1478C120.204 38.1478 120.511 38.3228 120.73 38.6297C120.949 38.9366 121.3 38.9804 120.993 39.5065C120.686 40.0323 120.423 40.2515 120.423 40.6022C120.423 40.9526 120.116 41.4348 119.897 41.8733C119.678 42.3113 119.502 42.7059 118.933 42.7497C118.363 42.7936 117.75 42.969 117.18 43.0566C116.61 43.1443 116.172 43.3632 114.944 43.3193C113.717 43.2755 113.191 43.3631 112.271 43.1878C111.35 43.0128 111.219 43.0124 110.649 42.8374C110.079 42.6621 109.553 42.6621 109.291 42.2236C109.028 41.7856 108.589 41.5664 108.545 41.0841C108.501 40.6022 108.282 40.2515 108.238 39.6815C108.195 39.112 107.713 38.5858 107.713 38.2789C107.713 37.9724 107.011 37.4025 107.537 37.5778C108.063 37.7532 108.764 38.2789 108.764 38.2789C108.764 38.2789 109.203 37.9724 109.553 38.0163C109.904 38.0601 110.255 38.0163 110.342 37.6217C110.43 37.2271 110.211 37.0083 109.86 36.9206C109.51 36.8329 108.852 36.7014 108.414 36.7014C107.976 36.7014 106.967 36.7448 107.45 36.3945C107.932 36.0437 108.326 35.8687 108.282 35.6057C108.238 35.3426 107.581 35.3426 107.581 34.9042C107.581 34.4661 107.537 34.3785 107.625 34.0277C107.713 33.677 108.238 33.502 108.238 32.932C108.238 32.3621 108.019 32.0556 108.458 31.924C108.896 31.7925 109.597 31.836 109.685 31.5294C109.772 31.2225 109.904 30.916 109.553 30.7845C109.203 30.653 109.071 30.2146 108.633 30.5653C108.194 30.916 107.625 31.0033 107.8 30.653C107.976 30.3022 107.976 30.2146 108.282 29.9953C108.589 29.7761 108.852 29.7327 108.896 29.4696C108.94 29.2065 108.896 28.9874 108.501 29.0312C108.107 29.075 107.493 29.1189 107.493 29.1189C107.493 29.1189 106.836 28.9435 107.23 28.6366C107.625 28.3297 107.844 28.4616 107.844 27.9355C107.844 27.4094 107.625 26.7083 107.625 26.7083C107.625 26.7083 107.362 26.9275 107.23 26.1822C107.099 25.4372 107.055 25.4372 107.099 24.78C107.143 24.1223 107.274 23.8154 107.011 23.2897C106.748 22.7636 106.617 22.0183 106.705 21.5802C106.792 21.1418 106.967 20.3092 107.055 20.0023C107.143 19.6958 107.231 19.3889 107.844 18.512C108.458 17.6355 108.94 16.9779 109.422 16.8029C109.904 16.6275 111.131 16.233 111.613 16.058C112.095 15.8826 114.506 15.7072 114.944 15.7072C115.383 15.7072 117.092 16.1891 117.574 16.4083C118.056 16.6275 119.371 17.066 119.678 17.2848C119.985 17.504 120.292 17.8109 120.379 18.2932C120.467 18.7751 120.73 21.4925 120.905 22.1502C121.08 22.8074 120.555 24.8673 120.555 24.8673ZM119.656 39.3092C119.787 39.7477 119.634 40.2076 119.327 40.1199C119.021 40.0323 118.56 39.8353 118.385 40.0542C118.209 40.2734 117.75 40.6022 117.618 40.4268C117.486 40.2515 117.552 39.9884 117.618 39.7692C117.684 39.5504 117.684 39.3092 117.706 39.0023C117.728 38.6954 117.465 38.3012 117.903 38.2574C118.341 38.2136 118.122 38.3228 118.473 38.6078C118.823 38.8927 119.108 38.827 119.261 38.9366C119.415 39.0462 119.656 39.3092 119.656 39.3092ZM118.692 36.1956C118.474 36.4134 118.157 36.681 117.859 36.4383C117.728 36.1533 118.363 35.1892 118.516 35.3645C118.67 35.5399 118.692 36.1956 118.692 36.1956ZM119.831 35.2988C119.634 35.2988 119.327 35.4084 119.415 35.0796C119.502 34.7507 119.393 34.51 119.656 34.5319C119.919 34.5538 120.029 34.773 120.029 34.773L119.831 35.2988ZM118.758 34.6634C118.451 34.7508 118.232 34.8169 118.253 34.5319C118.275 34.2469 118.451 33.9839 118.67 34.1154C118.889 34.2469 118.977 34.5758 118.758 34.6634ZM111.575 38.7393C111.606 39.1558 111.59 39.4408 111.39 39.7038C111.19 39.9665 110.913 40.2295 110.79 40.4049C110.667 40.5803 110.421 40.8653 109.751 40.6241C109.575 40.383 110.649 38.805 110.649 38.805C110.649 38.805 110.824 38.4981 111.065 38.3889C111.307 38.2793 111.635 38.3232 111.575 38.7393ZM111.022 26.6425C110.649 26.6425 110.145 26.7083 110.014 26.9275C109.882 27.1467 109.97 27.059 109.97 27.519C109.97 27.9793 110.255 28.2424 110.057 28.4178C109.86 28.5928 109.685 27.804 109.487 28.1547C109.291 28.5051 109.203 28.7681 108.94 28.6804C108.677 28.5928 108.085 28.5931 108.567 28.1547C109.049 27.7163 109.378 27.4752 109.422 27.1902C109.466 26.9056 109.641 26.1164 109.816 25.7441C109.992 25.3715 110.123 25.0427 110.495 25.2619C110.868 25.4811 111.35 26.5768 111.022 26.6425ZM111.175 23.8154C110.868 23.7058 110.562 23.3993 110.364 23.7277C110.167 24.0566 109.816 24.5169 109.685 24.1223C109.553 23.7277 109.444 23.7281 109.751 23.4432C110.057 23.1582 109.926 22.939 110.277 22.8074C110.627 22.6759 110.934 22.3913 111.131 22.6759C111.328 22.9609 111.46 23.8593 111.175 23.8154ZM110.43 21.5583C109.948 21.4706 109.531 21.3829 109.553 21.0545C109.575 20.7257 109.772 20.3311 109.992 20.3749C110.211 20.4188 110.43 20.2872 110.518 20.638C110.605 20.9883 110.693 21.5364 110.43 21.5583Z" fill="#FEFEFE"/>
<path d="M96.3695 52.5436V50.3005C96.3695 49.4285 96.3616 48.7977 96.3226 48.1359L96.3461 48.1276C96.6031 48.6964 96.9534 49.2959 97.3193 49.8802L98.9861 52.5436H99.6717V47.2946H99.0329V49.4988C99.0329 50.3084 99.0484 50.9471 99.1108 51.6479L99.0874 51.6558C98.8458 51.1184 98.5344 50.5654 98.1527 49.9505L96.4784 47.2946H95.7308V52.5436H96.3695ZM91.5362 52.0761C90.4697 52.0761 89.8619 51.056 89.8619 49.9505C89.8619 48.8132 90.4228 47.7621 91.5517 47.7621C92.6811 47.7621 93.2265 48.8521 93.2265 49.896C93.2265 51.0874 92.6191 52.0761 91.5442 52.0761H91.5362ZM91.5128 52.6294C92.8443 52.6294 93.9427 51.6634 93.9427 49.8643C93.9427 48.3071 93.0159 47.2088 91.5752 47.2088C90.1733 47.2088 89.1453 48.2996 89.1453 49.966C89.1453 51.5545 90.111 52.6294 91.5053 52.6294H91.5128ZM86.6795 47.2946V52.5436H87.3648V47.2946H86.6795ZM82.9057 52.5436H83.5909V47.871H85.1953V47.2946H81.3092V47.871H82.9057V52.5436ZM79.7936 51.827C79.5211 51.9597 79.1005 52.0455 78.6802 52.0455C77.4106 52.0455 76.6706 51.2276 76.6706 49.9425C76.6706 48.5717 77.4885 47.7852 78.7187 47.7852C79.1549 47.7852 79.5211 47.8785 79.7702 48.0033L79.9414 47.4428C79.7626 47.3566 79.342 47.2167 78.6957 47.2167C77.0682 47.2167 75.9544 48.3226 75.9544 49.966C75.9544 51.6872 77.0599 52.6215 78.54 52.6215C79.1783 52.6215 79.6844 52.4971 79.9259 52.3724L79.7936 51.827ZM70.3112 47.2946V50.3863C70.3112 52.0217 71.1211 52.6294 72.1956 52.6294C73.3329 52.6294 74.1814 51.9752 74.1814 50.3632V47.2946H73.4966V50.4097C73.4966 51.5624 72.9905 52.0761 72.2195 52.0761C71.5184 52.0761 70.9964 51.5779 70.9964 50.4097V47.2946H70.3112ZM65.8986 47.8475C66.0154 47.8165 66.2414 47.7852 66.5683 47.7852C67.2849 47.7852 67.7755 48.0811 67.7755 48.7584C67.7755 49.3586 67.3163 49.7554 66.5917 49.7554H65.8986V47.8475ZM65.2209 52.5436H65.8986V50.2698H66.5373C67.1526 50.2929 67.4406 50.5654 67.5963 51.2899C67.7365 51.9438 67.8533 52.3879 67.9391 52.5436H68.6399C68.5386 52.341 68.4142 51.835 68.2426 51.1029C68.1103 50.5579 67.8688 50.1841 67.4716 50.0438V50.0204C68.017 49.8333 68.4607 49.3741 68.4607 48.6885C68.4607 48.2758 68.305 47.9175 68.048 47.6918C67.7207 47.3959 67.246 47.2557 66.5214 47.2557C66.0622 47.2557 65.5637 47.3022 65.2209 47.3725V52.5436ZM61.4391 52.5436H62.1243V47.871H63.7288V47.2946H59.8426V47.871H61.4391V52.5436ZM55.43 52.279C55.7101 52.4657 56.2634 52.6215 56.7695 52.6215C58.0077 52.6215 58.5995 51.9128 58.5995 51.1108C58.5995 50.3398 58.1558 49.9191 57.268 49.5687C56.5439 49.2883 56.2245 49.0468 56.2245 48.5641C56.2245 48.2058 56.497 47.7776 57.2132 47.7776C57.6887 47.7776 58.039 47.9254 58.2023 48.0267L58.3898 47.4658C58.1634 47.3415 57.7665 47.2167 57.2367 47.2167C56.2166 47.2167 55.5393 47.8241 55.5393 48.642C55.5393 49.3741 56.0684 49.8257 56.9252 50.1213C57.6343 50.3863 57.9143 50.6743 57.9143 51.1652C57.9143 51.6947 57.5095 52.053 56.8164 52.053C56.3488 52.053 55.9131 51.9052 55.6092 51.7182L55.43 52.279ZM50.3008 52.5436V50.3005C50.3008 49.4285 50.2933 48.7977 50.2543 48.1359L50.2778 48.1276C50.5348 48.6964 50.8852 49.2959 51.251 49.8802L52.9178 52.5436H53.603V47.2946H52.9646V49.4988C52.9646 50.3084 52.9798 50.9471 53.0425 51.6479L53.0191 51.6558C52.7776 51.1184 52.4661 50.5654 52.0844 49.9505L50.4097 47.2946H49.6621V52.5436H50.3008ZM45.468 52.0761C44.401 52.0761 43.7932 51.056 43.7932 49.9505C43.7932 48.8132 44.3545 47.7621 45.4835 47.7621C46.6128 47.7621 47.1578 48.8521 47.1578 49.896C47.1578 51.0874 46.5504 52.0761 45.4755 52.0761H45.468ZM45.4445 52.6294C46.7761 52.6294 47.8744 51.6634 47.8744 49.8643C47.8744 48.3071 46.9473 47.2088 45.5069 47.2088C44.1051 47.2088 43.077 48.2996 43.077 49.966C43.077 51.5545 44.0427 52.6294 45.4366 52.6294H45.4445ZM41.6552 51.827C41.3823 51.9597 40.962 52.0455 40.5414 52.0455C39.2718 52.0455 38.5318 51.2276 38.5318 49.9425C38.5318 48.5717 39.3497 47.7852 40.5803 47.7852C41.0164 47.7852 41.3823 47.8785 41.6314 48.0033L41.803 47.4428C41.6238 47.3566 41.2031 47.2167 40.5568 47.2167C38.9294 47.2167 37.8156 48.3226 37.8156 49.966C37.8156 51.6872 38.9211 52.6215 40.4011 52.6215C41.0395 52.6215 41.5459 52.4971 41.7875 52.3724L41.6552 51.827Z" fill="#FEFEFE"/>
<path d="M95.1948 10.1214H93.4664V10.6668H94.5255V12.2319C94.3694 12.3098 94.0659 12.3722 93.6221 12.3722C92.3915 12.3722 91.5975 11.5856 91.5975 10.2541C91.5975 8.9377 92.4301 8.14361 93.7076 8.14361C94.2375 8.14361 94.5878 8.23697 94.8679 8.36926L95.0395 7.81668C94.8135 7.70746 94.3308 7.5748 93.7231 7.5748C91.9629 7.5748 90.8809 8.71962 90.8809 10.2851C90.8809 11.103 91.1609 11.8037 91.6126 12.2399C92.1266 12.7308 92.7808 12.933 93.5753 12.933C94.284 12.933 94.8913 12.7618 95.1948 12.645V10.1214ZM85.7985 12.8786V10.6355C85.7985 9.76314 85.7902 9.13235 85.7517 8.47055L85.7747 8.46262C86.0321 9.03144 86.3825 9.63086 86.7483 10.2152L88.4151 12.8786H89.1003V7.62961H88.4616V9.83344C88.4616 10.6434 88.4771 11.2821 88.5398 11.9829L88.516 11.9908C88.2749 11.4533 87.9631 10.9004 87.5817 10.2851L85.9074 7.62961H85.1594V12.8786H85.7985ZM82.3826 7.62961V12.8786H83.0678V7.62961H82.3826ZM77.9696 8.18216C78.0868 8.15117 78.3124 8.12019 78.6393 8.12019C79.3559 8.12019 79.8469 8.41575 79.8469 9.09342C79.8469 9.69323 79.3873 10.0905 78.6632 10.0905H77.9696V8.18216ZM77.292 12.8786H77.9696V10.6045H78.6087C79.2237 10.6279 79.5117 10.9004 79.6678 11.6246C79.8076 12.2788 79.9244 12.7225 80.0106 12.8786H80.7109C80.6096 12.676 80.4853 12.1699 80.3141 11.4379C80.1814 10.8925 79.9403 10.5187 79.543 10.3788V10.355C80.088 10.1683 80.5321 9.70872 80.5321 9.02349C80.5321 8.61077 80.376 8.25247 80.1194 8.02683C79.7921 7.73089 79.317 7.5903 78.5929 7.5903C78.1333 7.5903 77.6348 7.63715 77.292 7.70745V12.8786ZM75.2627 9.85687H73.2301V8.19805H75.3874V7.62961H72.5449V12.8786H75.5042V12.3098H73.2301V10.4178H75.2627V9.85687ZM70.5232 9.85687H68.4902V8.19805H70.6475V7.62961H67.805V12.8786H70.7643V12.3098H68.4902V10.4178H70.5232V9.85687ZM62.4188 12.8786V10.6355C62.4188 9.76314 62.4112 9.13235 62.3723 8.47055L62.3957 8.46262C62.6527 9.03144 63.0031 9.63086 63.3689 10.2152L65.0357 12.8786H65.7209V7.62961H65.0826V9.83344C65.0826 10.6434 65.0981 11.2821 65.1604 11.9829L65.137 11.9908C64.8955 11.4533 64.584 10.9004 64.2023 10.2851L62.5276 7.62961H61.7804V12.8786H62.4188ZM59.0028 7.62961V12.8786H59.6884V7.62961H59.0028ZM57.0745 10.1214H55.3457V10.6668H56.4052V12.2319C56.2494 12.3098 55.9456 12.3722 55.5015 12.3722C54.2712 12.3722 53.4768 11.5856 53.4768 10.2541C53.4768 8.9377 54.3102 8.14361 55.5873 8.14361C56.1168 8.14361 56.4671 8.23697 56.7476 8.36926L56.9188 7.81668C56.6931 7.70746 56.2105 7.5748 55.6031 7.5748C53.843 7.5748 52.7602 8.71962 52.7602 10.2851C52.7602 11.103 53.0406 11.8037 53.4923 12.2399C54.0063 12.7308 54.6605 12.933 55.455 12.933C56.1636 12.933 56.771 12.7618 57.0745 12.645V10.1214ZM47.6778 12.8786V10.6355C47.6778 9.76314 47.6703 9.13235 47.6314 8.47055L47.6548 8.46262C47.9114 9.03144 48.2622 9.63086 48.628 10.2152L50.2948 12.8786H50.98V7.62961H50.3417V9.83344C50.3417 10.6434 50.3571 11.2821 50.4191 11.9829L50.3961 11.9908C50.1546 11.4533 49.8428 10.9004 49.4614 10.2851L47.7871 7.62961H47.0395V12.8786H47.6778ZM45.0099 9.85687H42.9772V8.19805H45.1346V7.62961H42.2916V12.8786H45.251V12.3098H42.9772V10.4178H45.0099V9.85687Z" fill="#FEFEFE"/>
<path fill-rule="evenodd" clip-rule="evenodd" d="M10.7727 25.5638C13.0922 27.8833 13.0922 31.644 10.7727 33.9635C8.45316 36.283 4.69253 36.283 2.37341 33.9635C0.0539151 31.644 0.0539151 27.8833 2.37341 25.5638C4.69253 23.2443 8.45316 23.2443 10.7727 25.5638ZM8.63419 26.4581L9.87843 27.7023C10.0708 27.8951 10.0708 28.2099 9.87843 28.4026L8.51741 29.7637L9.87843 31.1247C10.0708 31.3174 10.0708 31.6323 9.87843 31.825L8.63419 33.0688C8.44182 33.2616 8.1266 33.2616 7.93423 33.0688L6.57286 31.7078L5.21184 33.0688C5.01946 33.2616 4.70425 33.2616 4.51187 33.0688L3.26765 31.825C3.0749 31.6323 3.0749 31.3174 3.26765 31.1247L4.62865 29.7637L3.26765 28.4026C3.0749 28.2099 3.0749 27.8951 3.26765 27.7023L4.51187 26.4581C4.70425 26.2657 5.01946 26.2657 5.21184 26.4581L6.57286 27.8195L7.93423 26.4581C8.1266 26.2657 8.44182 26.2657 8.63419 26.4581Z" fill="#FEFEFE"/>
<path fill-rule="evenodd" clip-rule="evenodd" d="M135.114 25.5638C137.433 27.8833 137.433 31.644 135.114 33.9635C132.794 36.283 129.034 36.283 126.714 33.9635C124.395 31.644 124.395 27.8833 126.714 25.5638C129.034 23.2443 132.794 23.2443 135.114 25.5638ZM132.975 26.4581L134.219 27.7023C134.412 27.8951 134.412 28.2099 134.219 28.4026L132.858 29.7637L134.219 31.1247C134.412 31.3174 134.412 31.6323 134.219 31.825L132.975 33.0688C132.783 33.2616 132.468 33.2616 132.275 33.0688L130.914 31.7078L129.553 33.0688C129.36 33.2616 129.045 33.2616 128.853 33.0688L127.608 31.825C127.416 31.6323 127.416 31.3174 127.608 31.1247L128.97 29.7637L127.608 28.4026C127.416 28.2099 127.416 27.8951 127.608 27.7023L128.853 26.4581C129.045 26.2657 129.36 26.2657 129.553 26.4581L130.914 27.8195L132.275 26.4581C132.468 26.2657 132.783 26.2657 132.975 26.4581Z" fill="#FEFEFE"/>
</svg>
