<?xml version="1.0" encoding="utf-8"?>
<!-- Generator: Adobe Illustrator 16.0.0, SVG Export Plug-In . SVG Version: 6.00 Build 0)  -->
<!DOCTYPE svg PUBLIC "-//W3C//DTD SVG 1.1//EN" "http://www.w3.org/Graphics/SVG/1.1/DTD/svg11.dtd">
<svg version="1.1" id="Слой_1" xmlns:xodm="http://www.corel.com/coreldraw/odm/2003"
	 xmlns="http://www.w3.org/2000/svg" xmlns:xlink="http://www.w3.org/1999/xlink" x="0px" y="0px" width="116.879px"
	 height="103.264px" viewBox="0 0 116.879 103.264" enable-background="new 0 0 116.879 103.264" xml:space="preserve">
<polygon fill="#CC9753" fill-opacity="0.0" points="116.879,0 0,0 0,103.264 116.879,103.264 "/>
<path fill="#FFFFFF" stroke="#CC9753" stroke-width="0.5" stroke-miterlimit="22.9256" d="M58.742,23.999
	c-5.778,0-10.745,3.468-12.938,8.434l-1.806-0.734l1.33,5.99l4.061-4.6l-1.903-0.227c1.984-4.227,6.278-7.154,11.255-7.154
	c6.864,0,12.43,5.565,12.43,12.43s-5.564,12.429-12.43,12.429c-3.873,0-7.333-1.771-9.612-4.549l-1.322,1.083
	c2.593,3.16,6.528,5.175,10.934,5.175c7.809,0,14.139-6.33,14.139-14.138C72.881,30.329,66.551,23.999,58.742,23.999z
	 M57.895,31.102h1.592v5.193c0.64,0.274,1.109,0.87,1.206,1.584l7.682,2.122l-0.424,1.535l-7.683-2.123
	c-0.37,0.462-0.938,0.758-1.577,0.758c-1.115,0-2.02-0.903-2.02-2.02c0-0.832,0.504-1.547,1.224-1.856V31.102L57.895,31.102z"/>
</svg>
