<?xml version="1.0" encoding="utf-8"?>
<!-- Generator: Adobe Illustrator 16.0.0, SVG Export Plug-In . SVG Version: 6.00 Build 0)  -->
<!DOCTYPE svg PUBLIC "-//W3C//DTD SVG 1.1//EN" "http://www.w3.org/Graphics/SVG/1.1/DTD/svg11.dtd">
<svg version="1.1" id="Слой_1" xmlns:xodm="http://www.corel.com/coreldraw/odm/2003"
	 xmlns="http://www.w3.org/2000/svg" xmlns:xlink="http://www.w3.org/1999/xlink" x="0px" y="0px" width="116.879px"
	 height="103.264px" viewBox="0 0 116.879 103.264" enable-background="new 0 0 116.879 103.264" xml:space="preserve">
<polygon fill="#CC9753" fill-opacity="0.0" points="0,0 116.879,0 116.879,103.264 0,103.264 "/>
<polygon fill="#FEFEFE" points="53.869,37.96 53.869,37.961 53.869,37.961 "/>
<path fill="#FEFEFE" d="M74.887,37.96h-0.346h-0.67l-3.707-7.158h2.477v-0.57v-0.263v-1.226v-0.416v-0.416h-4.652l-2.984-2.97
	h-0.281h-0.342h-3.897c-0.133-0.193-0.292-0.369-0.474-0.519v-2.41h-3.204v2.41c-0.181,0.149-0.341,0.325-0.474,0.519h-1.506v0.833
	h1.137c-0.045,0.188-0.068,0.384-0.068,0.585c0,0.188,0.02,0.37,0.06,0.546h-2.102h-1.084h-0.101l-3.1,3.063h-4.563v-1.226h4.23
	l2.985-2.969h1.13v-0.833h-0.851H52.03h-0.155l-2.985,2.97h-4.651v0.416v0.416v1.226v0.263v0.57h2.476l-3.707,7.158h-0.669h-0.284
	h-0.566c0.733,2.732,3.227,4.744,6.19,4.744c2.963,0,5.456-2.011,6.189-4.743h-0.503h-0.347h-0.668l-3.708-7.159h1.267l3.1-3.063
	h3.297c0.138,0.21,0.306,0.397,0.5,0.558v2.137h0.833v-1.68c0.242,0.078,0.501,0.12,0.77,0.12s0.527-0.043,0.77-0.12v11.341h0.833
	V28.296c0.192-0.16,0.361-0.348,0.499-0.558h3.359l3.1,3.063h1.268l-3.707,7.158h-0.67h-0.283H63.01
	c0.732,2.732,3.227,4.744,6.19,4.744s5.457-2.012,6.19-4.744H74.887z M52.715,38.731c-0.905,1.868-2.82,3.157-5.036,3.157
	s-4.13-1.289-5.035-3.157H52.715z M51.501,37.96h-7.645l3.707-7.158h0.23L51.501,37.96z M57.639,22.845h1.539v1.122
	c-0.242-0.078-0.5-0.121-0.769-0.121s-0.527,0.043-0.77,0.121V22.845z M58.408,27.958c-0.882,0-1.598-0.716-1.598-1.599
	s0.715-1.599,1.598-1.599s1.599,0.716,1.599,1.599S59.291,27.958,58.408,27.958z M67.312,29.969l-3.101-3.063h-0.084h-1.101h-2.165
	c0.039-0.176,0.061-0.358,0.061-0.546c0-0.201-0.023-0.396-0.068-0.585h3.807l2.984,2.969h4.23v1.226H67.312z M69.086,30.802h0.229
	l3.708,7.158h-7.645L69.086,30.802z M69.2,41.888c-2.216,0-4.13-1.289-5.036-3.157h10.072C73.33,40.599,71.416,41.888,69.2,41.888z"
	/>
<path fill="#FEFEFE" d="M63.781,50.509v-1.262c0-0.933-0.764-1.696-1.697-1.696H60.01v-6.122h-0.832v6.122h-1.539v-15.61h-0.833
	v15.61h-2.105c-0.933,0-1.696,0.764-1.696,1.696v1.262c-0.912,0.025-1.649,0.778-1.649,1.696v2.058H65.43v-2.058
	C65.43,51.288,64.692,50.534,63.781,50.509z M53.917,49.315c0-0.511,0.417-0.928,0.927-0.928h7.097c0.51,0,0.926,0.418,0.926,0.928
	v1.193h-8.95V49.315z M64.51,53.383H52.276v-1.068c0-0.51,0.417-0.927,0.927-0.927h10.379c0.51,0,0.928,0.417,0.928,0.927V53.383z"
	/>
</svg>
