<?xml version="1.0" encoding="utf-8"?>
<!-- Generator: Adobe Illustrator 16.0.0, SVG Export Plug-In . SVG Version: 6.00 Build 0)  -->
<!DOCTYPE svg PUBLIC "-//W3C//DTD SVG 1.1//EN" "http://www.w3.org/Graphics/SVG/1.1/DTD/svg11.dtd">
<svg version="1.1" id="Слой_1" xmlns:xodm="http://www.corel.com/coreldraw/odm/2003"
	 xmlns="http://www.w3.org/2000/svg" xmlns:xlink="http://www.w3.org/1999/xlink" x="0px" y="0px" width="116.879px"
	 height="103.264px" viewBox="0 0 116.879 103.264" enable-background="new 0 0 116.879 103.264" xml:space="preserve">
<polygon fill="#CC9753" fill-opacity="0.0" points="116.879,0 0,0 0,103.264 116.879,103.264 "/>
<g>
	<path fill="#FEFEFE" d="M72.945,49.589c-0.293-0.293-0.745-0.494-1.145-0.46l-1.85,0.16l-0.308-0.308
		c2.597-2.78,4.187-6.513,4.187-10.618c0-3.72-1.307-7.134-3.483-9.812l-0.833,0.678c2.027,2.492,3.242,5.671,3.242,9.134
		c0,3.809-1.47,7.272-3.872,9.858l-2.751-2.751c1.701-1.88,2.736-4.372,2.736-7.107c0-2.272-0.715-4.377-1.932-6.103l-0.891,0.627
		c1.092,1.549,1.732,3.437,1.732,5.476c0,2.736-1.17,5.305-3.176,7.096l4.543,4.544l-0.168,1.949
		c-0.035,0.398,0.166,0.851,0.459,1.145l3.006,3.005c0.333,0.333,0.932,0.063,0.926-0.407l-0.027-2.202l2.201,0.027
		c0.471,0.006,0.74-0.593,0.407-0.926L72.945,49.589z M72.294,52.445l-0.128,1.989l-2.15-2.149l0.129-1.989l1.989-0.128l2.149,2.149
		L72.294,52.445z"/>
	<path fill="#FEFEFE" d="M63.742,46.144c-1.549,1.092-3.438,1.733-5.476,1.733c-2.039,0-3.928-0.642-5.476-1.733H52.79l-0.626,0.891
		c1.726,1.217,3.831,1.932,6.103,1.932s4.376-0.715,6.103-1.932L63.742,46.144z"/>
	<path fill="#FEFEFE" d="M58.267,52.853c-3.463,0-6.642-1.216-9.135-3.242l-0.677,0.834c2.677,2.177,6.092,3.482,9.812,3.482
		c3.673,0,7.048-1.273,9.71-3.401c-0.214-0.319-0.435-0.648-0.604-0.893C64.885,51.647,61.717,52.853,58.267,52.853z"/>
	<path fill="#FEFEFE" d="M76.012,22.756l-2.202,0.027l0.026-2.202c0.007-0.471-0.592-0.74-0.925-0.407l-3.005,3.005
		c-0.293,0.294-0.494,0.746-0.46,1.145l0.167,1.934l-0.729,0.729c-2.78-2.597-6.514-4.186-10.618-4.186l0,0.001
		c-8.596,0-15.563,6.967-15.563,15.563c0,4.105,1.589,7.839,4.185,10.619l-0.316,0.316l-1.963-0.17
		c-0.399-0.034-0.851,0.167-1.145,0.46l-3.005,3.005c-0.333,0.333-0.063,0.932,0.407,0.926l2.203-0.027l-0.027,2.202
		c-0.006,0.471,0.592,0.74,0.925,0.407l3.005-3.005c0.294-0.293,0.495-0.746,0.46-1.145l-0.159-1.837l6.091-6.092
		c-0.271-0.234-0.524-0.488-0.759-0.76L51.17,44.7c-1.503-1.683-2.417-3.902-2.417-6.337c0-5.254,4.259-9.513,9.514-9.513
		c2.434,0,4.653,0.914,6.337,2.417l-2.467,2.466c-1.047-0.877-2.396-1.404-3.87-1.404c-3.333,0-6.035,2.702-6.035,6.034
		c0,3.334,2.702,6.035,6.035,6.035c3.333,0,6.034-2.701,6.034-6.035c0-0.875-0.186-1.706-0.521-2.457l-1.078,0.48
		c0.27,0.604,0.42,1.273,0.42,1.977c0,2.682-2.174,4.855-4.854,4.855c-2.682,0-4.855-2.174-4.855-4.855
		c0-2.681,2.174-4.854,4.855-4.854c1.147,0,2.201,0.397,3.032,1.063l-2.097,2.097c-0.277-0.153-0.596-0.24-0.936-0.24
		c-1.069,0-1.936,0.866-1.936,1.936s0.867,1.937,1.936,1.937s1.936-0.867,1.936-1.937c0-0.34-0.087-0.658-0.241-0.936l10.442-10.442
		l1.866,0.161c0.398,0.035,0.852-0.166,1.145-0.46l3.005-3.005C76.752,23.349,76.482,22.751,76.012,22.756z M44.245,54.434
		l-0.128-1.989l-1.989-0.128l2.149-2.149l1.989,0.128l0.128,1.989L44.245,54.434z M58.267,39.211c-0.468,0-0.847-0.38-0.847-0.848
		s0.379-0.847,0.847-0.847c0.467,0,0.847,0.379,0.847,0.847S58.734,39.211,58.267,39.211z M65.374,30.496
		c-1.88-1.7-4.373-2.735-7.107-2.735c-5.856,0-10.603,4.746-10.603,10.603c0,2.734,1.035,5.228,2.735,7.107l-2.751,2.751
		c-2.402-2.585-3.871-6.051-3.871-9.858c0-8.003,6.486-14.489,14.489-14.489c3.808,0,7.272,1.469,9.858,3.871L65.374,30.496z
		 M72.602,26.109l-1.988-0.128l-0.129-1.989l2.15-2.149l0.127,1.988l1.99,0.129L72.602,26.109z"/>
</g>
</svg>
