<?xml version="1.0" encoding="utf-8"?>
<!-- Generator: Adobe Illustrator 16.0.0, SVG Export Plug-In . SVG Version: 6.00 Build 0)  -->
<!DOCTYPE svg PUBLIC "-//W3C//DTD SVG 1.1//EN" "http://www.w3.org/Graphics/SVG/1.1/DTD/svg11.dtd">
<svg version="1.1" id="Слой_1" xmlns:xodm="http://www.corel.com/coreldraw/odm/2003"
	 xmlns="http://www.w3.org/2000/svg" xmlns:xlink="http://www.w3.org/1999/xlink" x="0px" y="0px" width="116.879px"
	 height="103.264px" viewBox="0 0 116.879 103.264" enable-background="new 0 0 116.879 103.264" xml:space="preserve">
<polygon fill="#CC9753" fill-opacity="0.0" points="0,0 116.879,0 116.879,103.264 0,103.264 "/>
<g>
	
		<rect x="63.122" y="46.287" transform="matrix(-0.5129 -0.8585 0.8585 -0.5129 56.0742 125.3561)" fill="#FEFEFE" width="0.964" height="0.964"/>
	
		<rect x="52.793" y="46.286" transform="matrix(-0.8586 -0.5126 0.5126 -0.8586 75.0431 114.2346)" fill="#FEFEFE" width="0.964" height="0.964"/>
	<path fill="#FEFEFE" d="M64.774,40.425l3.511-0.646l-0.543-4.142l2.867-3.011l-2.873-3.032l0.549-4.121l-4.107-0.765L62.2,21.053
		l-3.772,1.796l-3.749-1.796l-1.996,3.67l-4.089,0.751l0.542,4.143l-2.867,3.011l2.874,3.032l-0.549,4.12l3.506,0.652l-6.229,10.419
		l5.46-0.832l1.852,5.204l5.256-8.79l5.256,8.79l1.852-5.204l5.461,0.832L64.774,40.425z M49.589,39.057l0.494-3.704L47.5,32.626
		l2.577-2.706l-0.487-3.725l3.676-0.675l1.794-3.299l3.371,1.614l3.391-1.614l1.777,3.287l3.693,0.687l-0.494,3.705l2.583,2.726
		l-2.577,2.707l0.488,3.724l-3.676,0.676l-1.795,3.299l-3.371-1.614l-3.391,1.614l-1.778-3.287L49.589,39.057z M53.48,52.85
		l-1.433-4.026l-4.226,0.644l5.096-8.523l1.558,2.879l-0.7,1.17l0.827,0.495l1.045-1.748l2.803-1.335l0.991,0.475L53.48,52.85z
		 M64.834,48.823L63.4,52.85l-4.398-7.356l1.313-2.196l0.914,0.438l1.049,1.752l0.826-0.495l-0.698-1.168l1.562-2.872l5.092,8.515
		L64.834,48.823z"/>
	<polygon fill="#FEFEFE" points="56.186,30.981 55.403,31.763 58.51,34.87 64.324,29.056 63.541,28.274 58.51,33.305 	"/>
	<path fill="#FEFEFE" d="M58.439,39.299c3.686,0,6.673-2.987,6.673-6.673c0-0.194-0.009-0.386-0.024-0.576l-1.006,0.087
		c0.014,0.161,0.021,0.324,0.021,0.489c0,3.128-2.536,5.664-5.664,5.664s-5.664-2.536-5.664-5.664s2.536-5.663,5.664-5.663
		c0.908,0,1.766,0.214,2.526,0.594l0.45-0.904c-0.896-0.446-1.906-0.699-2.977-0.699c-3.685,0-6.673,2.987-6.673,6.673
		S54.754,39.299,58.439,39.299z"/>
</g>
</svg>
