<?xml version="1.0" encoding="UTF-8"?>
<!DOCTYPE svg PUBLIC "-//W3C//DTD SVG 1.1//EN" "http://www.w3.org/Graphics/SVG/1.1/DTD/svg11.dtd">
<!-- Creator: CorelDRAW 2020 (64-Bit) -->
<svg xmlns="http://www.w3.org/2000/svg" xml:space="preserve" width="41.2323mm" height="36.4293mm" version="1.1" style="shape-rendering:geometricPrecision; text-rendering:geometricPrecision; image-rendering:optimizeQuality; fill-rule:evenodd; clip-rule:evenodd"
viewBox="0 0 4109.01 3630.37"
 xmlns:xlink="http://www.w3.org/1999/xlink"
 xmlns:xodm="http://www.corel.com/coreldraw/odm/2003">
 <defs>
  <style type="text/css">
   <![CDATA[
    .fil0 {fill:#CC9753}
    .fil1 {fill:#FEFEFE}
   ]]>
  </style>
 </defs>
 <g id="Слой_x0020_1">
  <metadata id="CorelCorpID_0Corel-Layer"/>
  <polygon class="fil0" fill-opacity="0.0" points="4109.01,0 -0,0 -0,3630.37 4109.01,3630.37 "/>
  <path class="fil1" d="M2655.43 1880.14l-294.26 0 0 -38.33 -89.43 0c-1,0 -2.18,0.12 -2.88,0.82l-67.09 66.8c-12.69,12.62 -32.43,23.8 -58.49,23.8l-201.22 0c-31.97,0 -58.15,-26.05 -58.15,-57.89l0 0c0,-10.88 3.06,-21.09 8.35,-29.8l-132.86 0c-31.99,0 -58.16,-26.06 -58.16,-57.9l0 0c0,-10.87 3.06,-21.08 8.35,-29.8l-13.82 0c-31.99,0 -58.16,-26.05 -58.16,-57.89l0 0c0,-4.74 0.59,-9.36 1.67,-13.77l-94.79 0 0 255.53 -37.59 0 0 -292.95 38.5 0 0 -89.04c0,-0.99 -0.12,-2.16 -0.83,-2.86l-67.09 -66.79c-12.68,-12.63 -23.91,-32.28 -23.91,-58.23l0 -200.32c0,-31.84 26.17,-57.9 58.15,-57.9l0 0c10.93,0 21.18,3.05 29.93,8.32l0 -132.27c0,-31.85 26.17,-57.9 58.16,-57.9l0 0c10.92,0 21.18,3.04 29.93,8.32l0 -13.76c0,-31.85 26.17,-57.9 58.16,-57.9l0 0c7.9,0 15.46,1.59 22.34,4.47l0 -94.05 -256.66 0 0 -37.43 294.26 0 0 38.33 89.43 0c1,0 2.18,-0.12 2.88,-0.82l67.1 -66.8c12.68,-12.62 32.42,-23.8 58.49,-23.8l201.21 0c31.98,0 58.15,26.05 58.15,57.89l0 0c0,10.88 -3.06,21.09 -8.35,29.8l132.87 0c31.98,0 58.15,26.05 58.15,57.9l0 0c0,10.87 -3.05,21.08 -8.35,29.8l13.82 0c31.99,0 58.16,26.05 58.16,57.89l0 0c0,4.74 -0.58,9.35 -1.67,13.76l94.79 0 0 -255.52 37.59 0 0 292.95 -38.5 0 0 89.03c0,1 0.12,2.17 0.83,2.87l67.09 66.79c12.69,12.63 23.91,32.28 23.91,58.23l0 200.32c0,31.84 -26.16,57.89 -58.15,57.89l0 0c-10.92,0 -21.18,-3.04 -29.93,-8.31l0 132.27c0,31.84 -26.17,57.89 -58.16,57.89l0 0c-10.92,0 -21.18,-3.04 -29.93,-8.31l0 13.76c0,31.84 -26.17,57.9 -58.16,57.9l0 0c-7.9,0 -15.46,-1.6 -22.34,-4.47l0 94.05 256.66 0 0 37.43zm-213.38 -848.29l-0.2 0.11 0.13 0.15 0.07 -0.26zm0.51 0.96c8.18,9.98 13.1,22.69 13.1,36.49l0 0c0,31.85 -26.17,57.9 -58.16,57.9l-10.4 0c5.3,8.71 8.35,18.91 8.35,29.8l0 0c0,31.84 -26.17,57.89 -58.15,57.89l-72.56 0c-23.42,72.6 -49.73,158.59 -49.73,239.63l0 162.95c0,16.38 13.47,29.8 29.94,29.8l0 0c16.46,0 29.93,-13.41 29.93,-29.8l0 -172.58 28.22 0 0 174.76 0 57.76c0,16.39 13.47,29.8 29.93,29.8l0 0c16.46,0 29.94,-13.41 29.94,-29.8l0 -219.18 0 -1.1 28.22 0 0 222.45 0 13.49c0,16.39 13.46,29.8 29.93,29.8l0 0c16.46,0 29.94,-13.41 29.94,-29.8l0 -61.17 0 -162.55 28.22 0 0 160.37c0,16.38 13.46,29.8 29.93,29.8l0 0c16.46,0 29.94,-13.41 29.94,-29.8l0 -179.68 0 -109.85c0,-16.38 -13.47,-29.79 -29.94,-29.79l0 0c-0.94,0 -1.86,0.04 -2.78,0.13l0 -34.74c0.92,-0.04 1.85,-0.07 2.78,-0.07l0 0c31.99,0 58.16,26.06 58.16,57.9l0 114.24c0,16.38 13.46,29.8 29.93,29.8l0 0c16.46,0 29.93,-13.41 29.93,-29.8l0 -196.36c0,-16.34 -5.75,-30.31 -16.08,-40.59l-66.64 -66.34c-6.37,-6.35 -9.1,-14.58 -9.1,-23.55l0 -88.22 -92.83 0zm-210.55 182.08l-71.33 0c-76.27,0 -190.24,-30.57 -238.45,-47.98l0 70.87c0,71.74 -27.44,177.04 -45.21,228.91l71.33 0c76.27,0 190.25,30.57 238.45,47.98l0 -70.87c0,-71.74 27.44,-177.04 45.21,-228.91zm-45.21 332.13c-74.65,-23.96 -164.63,-52.24 -249.23,-52.24l-163.67 0c-16.45,0 -29.93,13.41 -29.93,29.8l0 0c0,16.39 13.47,29.8 29.93,29.8l173.36 0 0 28.09 -175.54 0 -58.02 0c-16.46,0 -29.93,13.41 -29.93,29.8l0 0c0,16.39 13.47,29.81 29.93,29.81l220.17 0 1.11 0 0 28.09 -223.46 0 -13.55 0c-16.46,0 -29.93,13.4 -29.93,29.8l0 0c0,16.38 13.47,29.8 29.93,29.8l61.45 0 163.26 0 0 28.09 -161.08 0c-16.46,0 -29.94,13.41 -29.94,29.8l0 0c0,16.39 13.47,29.8 29.94,29.8l180.48 0 110.34 0c16.46,0 29.94,-13.4 29.94,-29.8l0 0c0,-0.93 -0.05,-1.85 -0.14,-2.77l34.9 0c0.04,0.92 0.07,1.84 0.07,2.77l0 0c0,31.84 -26.18,57.9 -58.16,57.9l-114.75 0c-16.46,0 -29.94,13.4 -29.94,29.8l0 0c0,16.38 13.47,29.79 29.94,29.79l197.24 0c16.41,0 30.43,-5.73 40.77,-16.01l66.64 -66.34c6.37,-6.34 14.64,-9.05 23.65,-9.05l88.62 0 0 -83.54c-8.35,4.63 -17.95,7.28 -28.14,7.28l0 0c-31.98,0 -58.15,-26.05 -58.15,-57.9l0 -10.35c-8.75,5.27 -19,8.31 -29.93,8.31l0 0c-31.99,0 -58.16,-26.05 -58.16,-57.89l0 -72.62zm-438.95 -595.63c8.35,-4.63 17.95,-7.28 28.14,-7.28l0 0c31.98,0 58.15,26.05 58.15,57.9l0 10.35c8.76,-5.27 19,-8.31 29.93,-8.31l0 0c31.99,0 58.16,26.05 58.16,57.89l0 72.62c74.65,23.96 164.63,52.24 249.23,52.24l163.67 0c16.45,0 29.93,-13.41 29.93,-29.8l0 0c0,-16.39 -13.47,-29.8 -29.93,-29.8l-173.36 0 0 -28.1 175.54 0 58.02 0c16.46,0 29.94,-13.4 29.94,-29.8l0 0c0,-16.38 -13.47,-29.8 -29.94,-29.8l-220.17 0 -1.1 0 0 -28.09 223.45 0 13.55 0c16.46,0 29.94,-13.4 29.94,-29.8l0 0c0,-16.39 -13.47,-29.8 -29.94,-29.8l-61.44 0 -163.27 0 0 -28.09 161.08 0c16.46,0 29.94,-13.41 29.94,-29.8l0 0c0,-16.39 -13.47,-29.8 -29.94,-29.8l-180.48 0 -110.34 0c-16.46,0 -29.93,13.4 -29.93,29.8l0 0c0,0.93 0.04,1.85 0.13,2.77l-34.9 0c-0.04,-0.92 -0.07,-1.84 -0.07,-2.77l0 0c0,-31.85 26.18,-57.9 58.16,-57.9l114.75 0c16.46,0 29.94,-13.4 29.94,-29.8l0 0c0,-16.38 -13.47,-29.8 -29.94,-29.8l-197.24 0c-16.41,0 -30.43,5.74 -40.77,16.01l-66.64 66.35c-6.37,6.34 -14.64,9.05 -23.65,9.05l-88.62 0 0 83.54zm-80.88 698.33l0.2 -0.12 -0.13 -0.14 -0.07 0.26zm-0.51 -0.96c-8.18,-9.99 -13.1,-22.69 -13.1,-36.5l0 0c0,-31.84 26.17,-57.89 58.16,-57.89l10.4 0c-5.3,-8.72 -8.35,-18.91 -8.35,-29.8l0 0c0,-31.84 26.17,-57.89 58.15,-57.89l72.56 0c23.42,-72.6 49.73,-158.6 49.73,-239.64l0 -162.94c0,-16.38 -13.47,-29.8 -29.94,-29.8l0 0c-16.45,0 -29.93,13.41 -29.93,29.8l0 172.58 -28.22 0 0 -174.76 0 -57.76c0,-16.39 -13.46,-29.8 -29.93,-29.8l0 0c-16.46,0 -29.94,13.41 -29.94,29.8l0 219.18 0 1.1 -28.22 0 0 -222.45 0 -13.49c0,-16.39 -13.46,-29.8 -29.93,-29.8l0 0c-16.46,0 -29.94,13.41 -29.94,29.8l0 61.17 0 162.54 -28.22 0 0 -160.36c0,-16.39 -13.46,-29.8 -29.93,-29.8l0 0c-16.46,0 -29.93,13.41 -29.93,29.8l0 179.68 0 109.84c0,16.39 13.46,29.8 29.93,29.8l0 0c0.94,0 1.86,-0.05 2.78,-0.13l0 34.74c-0.92,0.04 -1.84,0.07 -2.78,0.07l0 0c-31.99,0 -58.16,-26.06 -58.16,-57.9l0 -114.24c0,-16.38 -13.46,-29.8 -29.93,-29.8l0 0c-16.46,0 -29.93,13.41 -29.93,29.8l0 196.36c0,16.34 5.76,30.31 16.08,40.58l66.65 66.35c6.37,6.34 9.09,14.58 9.09,23.54l0 88.23 92.83 0z"/>
 </g>
</svg>
